<?xml version="1.0" encoding="utf-8"?>
<!-- Generator: Adobe Illustrator 27.2.0, SVG Export Plug-In . SVG Version: 6.00 Build 0)  -->
<svg version="1.1" id="Layer_1" xmlns="http://www.w3.org/2000/svg" xmlns:xlink="http://www.w3.org/1999/xlink" x="0px" y="0px"
	 viewBox="0 0 612 792" style="enable-background:new 0 0 612 792;" xml:space="preserve">
<style type="text/css">
	.st0{fill:#14121F;}
	.st1{fill:#6E3846;}
	.st2{fill:#A05C54;}
	.st3{fill:#BBBBBB;}
	.st4{fill:#50AEE2;}
	.st5{fill:#8E8E8E;}
	.st6{fill:#2179D1;}
	.st7{fill:#693737;}
	.st8{fill:#581E23;}
	.st9{fill:#FFD343;}
	.st10{fill:#56455F;}
	.st11{fill:#382655;}
	.st12{fill:#6E5872;}
	.st13{fill:#E4E1E8;}
	.st14{fill:#867B98;}
	.st15{fill:#B9B2BD;}
	.st16{fill:#ADA6B9;}
	.st17{fill:#E8344E;}
	.st18{fill:#A81856;}
	.st19{fill:#E8E5E9;}
	.st20{fill:#502535;}
	.st21{fill:#6F473E;}
	.st22{fill:#976249;}
	.st23{fill:#EC8F11;}
	.st24{fill:#FFFFFF;}
</style>
<g id="body">
	<g>
		<path class="st0" d="M216,505c0-2.9,0-5.8,0-9c-3.2,0-6.1,0-9,0c-0.3-0.3-0.7-0.7-1-1c0-2.9,0-5.8,0-9c-3.2,0-6.1,0-9,0
			c-0.3-0.3-0.7-0.7-1-1c0-9.3,0-18.7,0-28c0.3-0.3,0.7-0.7,1-1c2.9,0,5.8,0,9,0c0-3.2,0-6.1,0-9c0.3-0.3,0.7-0.7,1-1
			c2.9,0,5.9,0,9,0c0-6.5,0-12.8,0-19c0.3-0.3,0.7-0.7,1-1c2.9,0,5.9,0,9,0c0-6.5,0-12.8,0-19c0.3-0.3,0.7-0.7,1-1c2.9,0,5.8,0,9,0
			c0-3.2,0-6.1,0-9c0.3-0.3,0.7-0.7,1-1c2.9,0,5.8,0,9,0c0-3.2,0-6.1,0-9c0.3-0.3,0.7-0.7,1-1c2.9,0,5.8,0,9,0c0-3.2,0-6.1,0-9
			c0.3-0.3,0.7-0.7,1-1c6.2,0,12.5,0,19,0c0-3.1,0-6.1,0-9c0.3-0.3,0.7-0.7,1-1c19.3,0,38.7,0,58,0c0.3,0.3,0.7,0.7,1,1
			c0,2.9,0,5.9,0,9c6.5,0,12.8,0,19,0c0.3,0.3,0.7,0.7,1,1c0,2.9,0,5.8,0,9c3.2,0,6.1,0,9,0c0.3,0.3,0.7,0.7,1,1c0,2.9,0,5.8,0,9
			c3.2,0,6.1,0,9,0c0.3,0.3,0.7,0.7,1,1c0,2.9,0,5.8,0,9c3.2,0,6.1,0,9,0c0.3,0.3,0.7,0.7,1,1c0,2.9,0,5.8,0,9c3.2,0,6.1,0,9,0
			c0.3,0.3,0.7,0.7,1,1c0,6.2,0,12.5,0,19c3.1,0,6.1,0,9,0c0.3,0.3,0.7,0.7,1,1c0,16,0,32,0,48c-0.3,0.3-0.7,0.7-1,1
			c-2.9,0-5.9,0-9,0c0,6.5,0,12.8,0,19c-0.3,0.3-0.7,0.7-1,1c-2.9,0-5.8,0-9,0c0,3.2,0,6.1,0,9c-0.3,0.3-0.7,0.7-1,1
			c-2.8,0-5.7,0-8.8,0c-0.4,6.5-0.1,13.1-0.2,20c3.1,0,6.1,0,9,0c0.3,0.3,0.7,0.7,1,1c0,2.9,0,5.8,0,9c3.2,0,6.1,0,9,0
			c0.3,0.3,0.7,0.7,1,1c0,2.9,0,5.8,0,9c3.2,0,6.1,0,9,0c0.3,0.3,0.7,0.7,1,1c0,9.3,0,18.7,0,28c-0.3,0.3-0.7,0.7-1,1
			c-2.9,0-5.8,0-9,0c0,3.2,0,6.1,0,9c-0.3,0.3-0.7,0.7-1,1c-2.9,0-5.8,0-9,0c0,3.2,0,6.1,0,9c-0.3,0.3-0.7,0.7-1,1c-2.9,0-5.9,0-9,0
			c0,10.2,0,20.1,0,30c-46.7,0-93.3,0-140,0c0-16.6,0-33.1,0-50c-3.1,0-6.1,0-9,0c-0.3-0.3-0.7-0.7-1-1c0-2.9,0-5.8,0-9
			c-3.2,0-6.1,0-9,0c-0.3-0.3-0.7-0.7-1-1c0-9.3,0-18.7,0-28c0.3-0.3,0.7-0.7,1-1c2.9,0,5.8,0,9,0c0-3.2,0-6.1,0-9
			c0.3-0.3,0.7-0.7,1-1c2.9,0,5.8,0,9,0c0-3.2,0-6.1,0-9c0.3-0.3,0.7-0.7,1-1c2.8,0,5.7,0,8.8,0c0.1-1.6,0.1-3.2,0.2-4.8
			c0-1.6,0-3.3,0-5.2c-6.4,0-12.7,0-19,0c-0.3-0.3-0.7-0.7-1-1c0-2.9,0-5.8,0-9c-3.2,0-6.1,0-9,0C216.7,505.7,216.3,505.3,216,505z
			 M226,487c0,2.9,0,5.8,0,9c3.5,0,6.7,0,10,0c3,0,6,0,9,0c0.3,0.3,0.7,0.7,1,1c0,2.9,0,5.9,0,9c6.5,0,12.8,0,19,0
			c0.3,0.3,0.7,0.7,1,1c0,3,0,6,0,9s0,6,0,9c-0.3,0.3-0.7,0.7-1,1c-2.9,0-5.8,0-9,0c0,3.2,0,6.1,0,9c-0.3,0.3-0.7,0.7-1,1
			c-2.9,0-5.8,0-9,0c0,3.2,0,6.1,0,9c-0.3,0.3-0.7,0.7-1,1c-3,0-5.9,0-9,0c0,10,0,19.6,0,29.2c0,0.1,0.1,0.3,0.2,0.4
			c0.1,0.1,0.2,0.2,0.4,0.3c9.5,0,19,0,28.5,0c0.3,0.3,0.7,0.7,1,1c0,2.7,0,5.3,0,8c-0.3,0.3-0.7,0.7-1,1c-2.9,0-5.8,0-9,0
			c0,3.5,0,6.7,0,10c0,9.9,0,19.9,0,30c10,0,19.6,0,29.2,0c0.1,0,0.3-0.1,0.4-0.2c0.1-0.1,0.2-0.2,0.3-0.3c0-2.9,0-5.7,0-8.5
			c0.3-0.3,0.7-0.7,1-1c2.9,0,5.8,0,9,0c0-3.5,0-6.7,0-10c0-3,0-6,0-9c0.3-0.3,0.7-0.7,1-1c12.7,0,25.3,0,38,0c0.3,0.3,0.7,0.7,1,1
			c0,2.7,0,5.3,0,8c-0.3,0.3-0.7,0.7-1,1c-3,0-5.9,0-9,0c0.2,6.9-0.2,13.5,0.2,20c3.5,0,6.7,0,9.8,0c6.6,0,13.2,0,20,0
			c0-10.2,0-20.1,0-30c0-6.3,0-12.7,0-19c0.3-0.3,0.7-0.7,1-1c2.7,0,5.3,0,8,0c0.3,0.3,0.7,0.7,1,1c0,2.9,0,5.9,0,8.8
			c6.9,0,13.4,0,20,0c0-9.8,0-19.4,0-29c0-0.1-0.1-0.3-0.2-0.4c-0.1-0.1-0.2-0.2-0.4-0.3c-2.8,0-5.6,0-8.5,0c-0.3-0.3-0.7-0.7-1-1
			c0-2.9,0-5.8,0-9c-3.2,0-6.1,0-9,0c-0.3-0.3-0.7-0.7-1-1c0-2.9,0-5.8,0-9c-3.2,0-6.1,0-9,0c-0.3-0.3-0.7-0.7-1-1c0-6,0-12,0-18
			c0.3-0.3,0.7-0.7,1-1c2.9,0,5.8,0,9,0c0-3.2,0-6.1,0-9c0.3-0.3,0.7-0.7,1-1c2.9,0,5.8,0,9,0c0-3.5,0-6.7,0-10c0-3,0-6,0-9
			c0.3-0.3,0.7-0.7,1-1c3,0,5.9,0,8.8,0c0.6-15.2,0.4-45.8-0.3-50c-2.8,0-5.7,0-8.5,0c-0.3-0.3-0.7-0.7-1-1c0-6.2,0-12.5,0-19
			c-3.1,0-6.1,0-9,0c-0.3-0.3-0.7-0.7-1-1c0-2.9,0-5.8,0-9c-3.2,0-6.1,0-9,0c-0.3-0.3-0.7-0.7-1-1c0-2.9,0-5.9,0-9
			c-6.5,0-12.8,0-19,0c-0.3-0.3-0.7-0.7-1-1c0-3,0-5.9,0-8.8c-15.9-0.6-55.7-0.4-60,0.3c0,2.8,0,5.7,0,8.5c-0.3,0.3-0.7,0.7-1,1
			c-6.2,0-12.5,0-19,0c0,3.1,0,6.1,0,9c-0.3,0.3-0.7,0.7-1,1c-2.9,0-5.9,0-9,0c0,6.5,0,12.8,0,19c-0.3,0.3-0.7,0.7-1,1
			c-2.9,0-5.9,0-9,0c0,9.9,0,19.4,0,29c-0.3,0.3-0.7,0.7-1,1c-3,0-6,0-9,0c-3.3,0-6.5,0-10,0c0,3.5,0,6.7,0,10c0,6.6,0,13.1,0,20
			c3.1,0,6.1,0,9,0C225.3,486.3,225.7,486.7,226,487z"/>
		<path class="st0" d="M197,456c-0.3,0.3-0.7,0.7-1,1C196.3,456.7,196.7,456.3,197,456z"/>
		<path class="st0" d="M207,446c-0.3,0.3-0.7,0.7-1,1C206.3,446.7,206.7,446.3,207,446z"/>
		<path class="st0" d="M406,437c-0.3-0.3-0.7-0.7-1-1C405.3,436.3,405.7,436.7,406,437z"/>
		<path class="st0" d="M217,426c-0.3,0.3-0.7,0.7-1,1C216.3,426.7,216.7,426.3,217,426z"/>
		<path class="st0" d="M196,485c0.3,0.3,0.7,0.7,1,1C196.7,485.7,196.3,485.3,196,485z"/>
		<path class="st0" d="M405,486c0.3-0.3,0.7-0.7,1-1C405.7,485.3,405.3,485.7,405,486z"/>
		<path class="st0" d="M396,417c-0.3-0.3-0.7-0.7-1-1C395.3,416.3,395.7,416.7,396,417z"/>
		<path class="st0" d="M206,495c0.3,0.3,0.7,0.7,1,1C206.7,495.7,206.3,495.3,206,495z"/>
		<path class="st0" d="M386,407c-0.3-0.3-0.7-0.7-1-1C385.3,406.3,385.7,406.7,386,407z"/>
		<path class="st0" d="M227,406c-0.3,0.3-0.7,0.7-1,1C226.3,406.7,226.7,406.3,227,406z"/>
		<path class="st0" d="M216,505c0.3,0.3,0.7,0.7,1,1C216.7,505.7,216.3,505.3,216,505z"/>
		<path class="st0" d="M395,506c0.3-0.3,0.7-0.7,1-1C395.7,505.3,395.3,505.7,395,506z"/>
		<path class="st0" d="M226,515c0.3,0.3,0.7,0.7,1,1C226.7,515.7,226.3,515.3,226,515z"/>
		<path class="st0" d="M385,516c0.3-0.3,0.7-0.7,1-1C385.7,515.3,385.3,515.7,385,516z"/>
		<path class="st0" d="M237,526c-0.3,0.3-0.7,0.7-1,1C236.3,526.7,236.7,526.3,237,526z"/>
		<path class="st0" d="M227,536c-0.3,0.3-0.7,0.7-1,1C226.3,536.7,226.7,536.3,227,536z"/>
		<path class="st0" d="M376,397c-0.3-0.3-0.7-0.7-1-1C375.3,396.3,375.7,396.7,376,397z"/>
		<path class="st0" d="M237,396c-0.3,0.3-0.7,0.7-1,1C236.3,396.7,236.7,396.3,237,396z"/>
		<path class="st0" d="M386,537c-0.3-0.3-0.7-0.7-1-1C385.3,536.3,385.7,536.7,386,537z"/>
		<path class="st0" d="M217,546c-0.3,0.3-0.7,0.7-1,1C216.3,546.7,216.7,546.3,217,546z"/>
		<path class="st0" d="M396,547c-0.3-0.3-0.7-0.7-1-1C395.3,546.3,395.7,546.7,396,547z"/>
		<path class="st0" d="M406,557c-0.3-0.3-0.7-0.7-1-1C405.3,556.3,405.7,556.7,406,557z"/>
		<path class="st0" d="M216,575c0.3,0.3,0.7,0.7,1,1C216.7,575.7,216.3,575.3,216,575z"/>
		<path class="st0" d="M226,585c0.3,0.3,0.7,0.7,1,1C226.7,585.7,226.3,585.3,226,585z"/>
		<path class="st0" d="M405,586c0.3-0.3,0.7-0.7,1-1C405.7,585.3,405.3,585.7,405,586z"/>
		<path class="st0" d="M366,387c-0.3-0.3-0.7-0.7-1-1C365.3,386.3,365.7,386.7,366,387z"/>
		<path class="st0" d="M247,386c-0.3,0.3-0.7,0.7-1,1C246.3,386.7,246.7,386.3,247,386z"/>
		<path class="st0" d="M395,596c0.3-0.3,0.7-0.7,1-1C395.7,595.3,395.3,595.7,395,596z"/>
		<path class="st0" d="M356,377c-0.3-0.3-0.7-0.7-1-1C355.3,376.3,355.7,376.7,356,377z"/>
		<path class="st0" d="M257,376c-0.3,0.3-0.7,0.7-1,1C256.3,376.7,256.7,376.3,257,376z"/>
		<path class="st0" d="M385,606c0.3-0.3,0.7-0.7,1-1C385.7,605.3,385.3,605.7,385,606z"/>
		<path class="st0" d="M336,367c-0.3-0.3-0.7-0.7-1-1C335.3,366.3,335.7,366.7,336,367z"/>
		<path class="st0" d="M277,366c-0.3,0.3-0.7,0.7-1,1C276.3,366.7,276.7,366.3,277,366z"/>
		<path class="st1" d="M236,455c0-9.6,0-19.1,0-29c3.1,0,6.1,0,9,0c0.3-0.3,0.7-0.7,1-1c0-6.2,0-12.5,0-19c3.1,0,6.1,0,9,0
			c0.3-0.3,0.7-0.7,1-1c0-2.9,0-5.9,0-9c6.5,0,12.8,0,19,0c0.3-0.3,0.7-0.7,1-1c0-2.8,0-5.7,0-8.5c4.3-0.7,44.1-1,60-0.3
			c0,2.9,0,5.9,0,8.8c0.3,0.3,0.7,0.7,1,1c6.2,0,12.5,0,19,0c0,3.1,0,6.1,0,9c0.3,0.3,0.7,0.7,1,1c2.9,0,5.8,0,9,0c0,3.2,0,6.1,0,9
			c0.3,0.3,0.7,0.7,1,1c2.9,0,5.9,0,9,0c0,6.5,0,12.8,0,19c0.3,0.3,0.7,0.7,1,1c2.8,0,5.7,0,8.5,0c0.7,4.2,1,34.8,0.3,50
			c-2.9,0-5.9,0-8.8,0c-0.3,0-0.7,0-1,0c0-3.3,0-6.5,0-10c-3.5,0-6.7,0-10,0c0-3.3,0-6.7,0-10c3.3,0,6.6,0,9.9,0c0-3.5,0-6.6,0-10.1
			c-3.3,0-6.6,0-10,0c0-3.5,0-6.6,0-9.7c-26.7,0-53.3,0-80.1,0c0,3.4,0,6.5,0,9.8c-1.8,0-3.5,0-5.1,0c-1.6,0-3.2,0.1-4.6,0.2
			c0,13.5,0,26.6,0,39.9c3.3,0,6.4,0,9.9,0c0,3.4,0,6.7,0,10.1c3.5,0,6.6,0,10.1,0c0,3.4,0,6.7,0,9.9c20.2,0,40,0,59.9,0
			c0,0.3,0,0.7,0,1c0,6,0,12,0,18c0,0.3,0,0.7,0,1c-3.3,0-6.6,0-9.8,0c-0.4-3.5,0.2-6.8-0.4-10.2c-20,0-39.8,0-59.6,0
			c-0.3-3.4,0.2-6.7-0.3-9.8c-6.8,0-13.3,0-19.8,0c0-3,0-6,0-9c-0.3-0.3-0.7-0.7-1-1c-6.2,0-12.5,0-19,0c0-3.1,0-6.1,0-9
			c0-0.3,0-0.7,0-1c0-9.9,0-19.9,0-29.9c-3.5-0.3-6.8,0.2-10-0.3c0-3.5,0-6.6,0-9.8C236,455.7,236,455.3,236,455z"/>
		<path class="st2" d="M266,516c6.5,0,13,0,19.8,0c0.5,3.2,0,6.5,0.3,9.8c19.8,0,39.6,0,59.6,0c0.6,3.3,0,6.6,0.4,10.2
			c3.3,0,6.6,0,9.8,0c0,13.3,0,26.7,0,40c-3.3,0-6.6,0-10,0c0,3.5,0,6.6,0,10c-20.1,0-40,0-60,0c0-13.3,0-26.7,0.1-40.1
			c3.2-0.1,6.5-0.1,9.7-0.1c0-3.4,0-6.6,0-9.8c-3.3,0-6.4,0-9.6,0c0,3.4,0,6.6-0.1,9.8c-3.3,0.1-6.6,0.1-10.2,0.1c0,6.8,0,13.4,0,20
			c-3.4,0-6.5,0-9.9,0c0,3.4,0,6.7,0,10c-0.3,0-0.7,0-1,0c-9.5,0-19,0-28.5,0c-0.1-0.1-0.3-0.2-0.4-0.3c-0.1-0.1-0.2-0.3-0.2-0.4
			c0-9.6,0-19.3,0-29.2c3.1,0,6,0,9,0c0.3-0.3,0.7-0.7,1-1c0-2.9,0-5.8,0-9c3.2,0,6.1,0,9,0c0.3-0.3,0.7-0.7,1-1c0-2.9,0-5.8,0-9
			c3.2,0,6.1,0,9,0c0.3-0.3,0.7-0.7,1-1C266,522,266,519,266,516z"/>
		<path class="st2" d="M296,597c0,3,0,6,0,9c-3.3,0-6.5,0-10,0c0,3.5,0,6.7,0,10c0,0.3,0,0.7,0,1c0,2.8,0,5.7,0,8.5
			c-0.1,0.1-0.2,0.2-0.3,0.3c-0.1,0.1-0.3,0.2-0.4,0.2c-9.6,0-19.3,0-29.2,0c0-10.1,0-20.1,0-30c3.3,0,6.5,0,10,0c0-3.5,0-6.7,0-10
			c6.7,0,13.3,0,20,0c0,3.3,0,6.5,0,10c3.5,0,6.7,0,10,0C296,596.3,296,596.7,296,597z"/>
		<path class="st1" d="M356,576c0-13.3,0-26.7,0-40c0.3,0,0.7,0,1,0c2.9,0,5.8,0,9,0c0,3.2,0,6.1,0,9c0.3,0.3,0.7,0.7,1,1
			c2.9,0,5.8,0,9,0c0,3.2,0,6.1,0,9c0.3,0.3,0.7,0.7,1,1c2.8,0,5.6,0,8.5,0c0.1,0.1,0.3,0.2,0.4,0.3c0.1,0.1,0.2,0.3,0.2,0.4
			c0,9.6,0,19.2,0,29c-6.6,0-13.1,0-20,0c0-2.9,0-5.8,0-8.8c-0.3-0.3-0.7-0.7-1-1c-2.7,0-5.3,0-8,0C356.7,576,356.3,576,356,576z"/>
		<path class="st1" d="M296,596c-3.3,0-6.5,0-10,0c0-3.5,0-6.7,0-10c19.9,0,39.9,0,60,0c0-3.4,0-6.5,0-10c3.4,0,6.7,0,10,0
			c0,0.3,0,0.7,0,1c0,6.3,0,12.7,0,19c-3.3,0-6.6,0-9.9,0c-0.4,3.5,0.2,6.8-0.3,10c-3.5,0-6.6,0-9.8,0c0-0.3,0-0.7,0-1
			c0-2.7,0-5.3,0-8c-0.3-0.3-0.7-0.7-1-1c-12.7,0-25.3,0-38,0C296.7,596,296.3,596,296,596z"/>
		<path class="st2" d="M236,456c0,3.2,0,6.3,0,9.8c3.2,0.5,6.5,0,10,0.3c0,10,0,19.9,0,29.9c-0.3,0-0.7,0-1,0c-3,0-6,0-9,0
			c0-3.3,0-6.5,0-10c-3.5,0-6.7,0-10,0c-0.3,0-0.7,0-1,0c-2.9,0-5.9,0-9,0c0-6.9,0-13.4,0-20c3.3,0,6.5,0,10,0c0-3.5,0-6.7,0-10
			c3,0,6,0,9,0C235.3,456,235.7,456,236,456z"/>
		<path class="st1" d="M286,586c-6.7,0-13.3,0-20,0c0-0.3,0-0.7,0-1c0-2.7,0-5.3,0-8c0-0.3,0-0.7,0-1c0-3.3,0-6.5,0-10
			c3.4,0,6.5,0,9.9,0c0-6.7,0-13.2,0-20c3.6,0,6.8,0,10.1,0C286,559.3,286,572.7,286,586z"/>
		<path class="st2" d="M336,606c3.2,0,6.3,0,9.8,0c0.5-3.2,0-6.5,0.3-10c3.3,0,6.6,0,9.9,0c0,9.9,0,19.8,0,30c-6.8,0-13.4,0-20,0
			C336,619.3,336,612.7,336,606z"/>
		<path class="st1" d="M336,606c0,6.7,0,13.3,0,20c-3.2,0-6.3,0-9.8,0c-0.4-6.5-0.1-13.1-0.2-20c3.1,0,6.1,0,9,0
			C335.3,606,335.7,606,336,606z"/>
		<path class="st2" d="M366,476c3.3,0,6.5,0,10,0c0,3.5,0,6.7,0,10c0,0.3,0,0.7,0,1c0,3,0,6,0,9c-3.3,0-6.7,0-10,0
			C366,489.3,366,482.7,366,476z"/>
		<path class="st1" d="M286,616c0-3.3,0-6.5,0-10c3.5,0,6.7,0,10,0c0,3.3,0,6.5,0,10c-3.2,0-6.1,0-9,0C286.7,616,286.3,616,286,616z
			"/>
		<path class="st1" d="M266,586c0,3.3,0,6.5,0,10c-3.5,0-6.7,0-10,0c0-3.3,0-6.5,0-10c3.2,0,6.1,0,9,0C265.3,586,265.7,586,266,586z
			"/>
		<path class="st1" d="M366,507c0,2.9,0,5.8,0,9c-3.2,0-6.1,0-9,0c-0.3,0-0.7,0-1,0c0-3.3,0-6.5,0-10c3.5,0,6.7,0,10,0
			C366,506.3,366,506.7,366,507z"/>
		<path class="st1" d="M366,496c3.3,0,6.7,0,10,0c0,3.3,0,6.5,0,10c-3.2,0-6.1,0-9,0c-0.3,0-0.7,0-1,0C366,502.7,366,499.3,366,496z
			"/>
		<path class="st1" d="M226,486c3.3,0,6.5,0,10,0c0,3.5,0,6.7,0,10c-3.3,0-6.5,0-10,0c0-3.2,0-6.1,0-9C226,486.7,226,486.3,226,486z
			"/>
		<path class="st1" d="M226,456c0,3.3,0,6.5,0,10c-3.5,0-6.7,0-10,0c0-3.3,0-6.5,0-10C219.5,456,222.7,456,226,456z"/>
		<path class="st0" d="M236,456c-0.3,0-0.7,0-1,0c0.3-0.3,0.7-0.7,1-1C236,455.3,236,455.7,236,456z"/>
		<path class="st0" d="M377,436c-0.3-0.3-0.7-0.7-1-1C376.3,435.3,376.7,435.7,377,436z"/>
		<path class="st0" d="M246,425c-0.3,0.3-0.7,0.7-1,1C245.3,425.7,245.7,425.3,246,425z"/>
		<path class="st0" d="M226,486c0,0.3,0,0.7,0,1c-0.3-0.3-0.7-0.7-1-1C225.3,486,225.7,486,226,486z"/>
		<path class="st0" d="M376,487c0-0.3,0-0.7,0-1c0.3,0,0.7,0,1,0C376.7,486.3,376.3,486.7,376,487z"/>
		<path class="st0" d="M245,496c0.3,0,0.7,0,1,0c0,0.3,0,0.7,0,1C245.7,496.7,245.3,496.3,245,496z"/>
		<path class="st0" d="M367,416c-0.3-0.3-0.7-0.7-1-1C366.3,415.3,366.7,415.7,367,416z"/>
		<path class="st0" d="M265,506c0.3,0.3,0.7,0.7,1,1C265.7,506.7,265.3,506.3,265,506z"/>
		<path class="st0" d="M357,406c-0.3-0.3-0.7-0.7-1-1C356.3,405.3,356.7,405.7,357,406z"/>
		<path class="st0" d="M366,506c0.3,0,0.7,0,1,0c-0.3,0.3-0.7,0.7-1,1C366,506.7,366,506.3,366,506z"/>
		<path class="st0" d="M256,405c-0.3,0.3-0.7,0.7-1,1C255.3,405.7,255.7,405.3,256,405z"/>
		<path class="st0" d="M356,516c0.3,0,0.7,0,1,0c-0.3,0.3-0.7,0.7-1,1C356,516.7,356,516.3,356,516z"/>
		<path class="st0" d="M266,525c-0.3,0.3-0.7,0.7-1,1C265.3,525.7,265.7,525.3,266,525z"/>
		<path class="st0" d="M256,535c-0.3,0.3-0.7,0.7-1,1C255.3,535.7,255.7,535.3,256,535z"/>
		<path class="st0" d="M357,536c-0.3,0-0.7,0-1,0c0-0.3,0-0.7,0-1C356.3,535.3,356.7,535.7,357,536z"/>
		<path class="st0" d="M246,545c-0.3,0.3-0.7,0.7-1,1C245.3,545.7,245.7,545.3,246,545z"/>
		<path class="st0" d="M367,546c-0.3-0.3-0.7-0.7-1-1C366.3,545.3,366.7,545.7,367,546z"/>
		<path class="st0" d="M337,396c-0.3-0.3-0.7-0.7-1-1C336.3,395.3,336.7,395.7,337,396z"/>
		<path class="st0" d="M377,556c-0.3-0.3-0.7-0.7-1-1C376.3,555.3,376.7,555.7,377,556z"/>
		<path class="st0" d="M266,576c0,0.3,0,0.7,0,1c-0.3-0.3-0.7-0.7-1-1C265.3,576,265.7,576,266,576z"/>
		<path class="st0" d="M276,395c-0.3,0.3-0.7,0.7-1,1C275.3,395.7,275.7,395.3,276,395z"/>
		<path class="st0" d="M356,577c0-0.3,0-0.7,0-1c0.3,0,0.7,0,1,0C356.7,576.3,356.3,576.7,356,577z"/>
		<path class="st0" d="M365,576c0.3,0.3,0.7,0.7,1,1C365.7,576.7,365.3,576.3,365,576z"/>
		<path class="st0" d="M266,586c-0.3,0-0.7,0-1,0c0.3-0.3,0.7-0.7,1-1C266,585.3,266,585.7,266,586z"/>
		<path class="st0" d="M296,596c0.3,0,0.7,0,1,0c-0.3,0.3-0.7,0.7-1,1C296,596.7,296,596.3,296,596z"/>
		<path class="st0" d="M335,596c0.3,0.3,0.7,0.7,1,1C335.7,596.7,335.3,596.3,335,596z"/>
		<path class="st0" d="M336,606c-0.3,0-0.7,0-1,0c0.3-0.3,0.7-0.7,1-1C336,605.3,336,605.7,336,606z"/>
		<path class="st0" d="M286,616c0.3,0,0.7,0,1,0c-0.3,0.3-0.7,0.7-1,1C286,616.7,286,616.3,286,616z"/>
		<path class="st2" d="M366,496c0,3.3,0,6.7,0,10c-3.3,0-6.5,0-10,0c0,3.5,0,6.7,0,10c-19.8,0-39.7,0-59.9,0c0-3.2,0-6.5,0-9.9
			c-3.5,0-6.6,0-10.1,0c0-3.4,0-6.6,0-10.1c-3.5,0-6.6,0-9.9,0c0-13.3,0-26.4,0-39.9c1.4-0.1,3-0.1,4.6-0.2c1.6,0,3.3,0,5.1,0
			c0-3.3,0-6.4,0-9.8c26.7,0,53.3,0,80.1,0c0,3.1,0,6.2,0,9.7c3.4,0,6.7,0,10,0c0,3.5,0,6.6,0,10.1c-3.3,0-6.6,0-9.9,0
			c-6.6,0-13.2,0-20,0c0,10.2,0,20.1-0.1,30.1c-3.2,0.1-6.5,0.1-9.7,0.1c0,3.4,0,6.6,0,9.8c3.3,0,6.4,0,9.6,0c0-3.4,0-6.6,0.1-9.8
			C352.7,496,359.3,496,366,496z M306,476c0,6.6,0,13.2,0,19.8c6.8,0,13.4,0,19.9,0c0-10,0-19.7,0-29.8c-6.7,0-13.3,0-19.9,0
			c-3.3,0-6.6,0-10,0c0,2,0,3.6,0,5.2c0,1.6,0.1,3.2,0.2,4.8C299.7,476,302.8,476,306,476z"/>
		<path class="st0" d="M366,496c-6.7,0-13.3,0-20,0c0-9.9,0-19.8,0-30c6.8,0,13.4,0,20,0c0,3.3,0,6.7,0,10
			C366,482.7,366,489.3,366,496z"/>
		<path class="st1" d="M286.1,545.9c0-3.1,0-6.4,0-9.8c3.2,0,6.3,0,9.6,0c0,3.2,0,6.4,0,9.8C292.5,545.9,289.3,545.9,286.1,545.9z"
			/>
		<path class="st0" d="M306,466c6.6,0,13.2,0,19.9,0c0,10,0,19.8,0,29.8c-6.5,0-13.1,0-19.9,0c0-6.6,0-13.2,0-19.8
			C306,472.7,306,469.3,306,466z"/>
		<path class="st1" d="M345.9,496.1c0,3.1,0,6.4,0,9.8c-3.2,0-6.3,0-9.6,0c0-3.2,0-6.4,0-9.8C339.5,496.1,342.7,496.1,345.9,496.1z"
			/>
		<path class="st1" d="M306,466c0,3.3,0,6.7,0,10c-3.2,0-6.3,0-9.8,0c-0.1-1.6-0.1-3.2-0.2-4.8c0-1.6,0-3.3,0-5.2
			C299.4,466,302.7,466,306,466z"/>
	</g>
</g>
<g id="clother">
	<g>
		<path class="st3" d="M276,556c-3.2,0-6.3,0-9.9,0c-0.3-3.2,0-6.5-0.2-9.8c-6.6,0-13,0-19.8,0c-0.1-1.7-0.1-3.3-0.2-4.9
			c0-1.6,0-3.3,0-5.1c3.3,0,6.4,0,9.9,0c0-3.4,0-6.6,0-10c3.5,0,6.6,0,10,0c0-3.4,0-6.6,0-10c6.8,0,13.2,0,20,0c0,3.1,0,6.4,0,9.9
			c20.3,0,40.2,0,60.1,0c0,3.3,0,6.7,0,10c-13.2,0-26.5,0-39.8,0c0,3.4,0,6.6,0,9.9c3.4,0.4,6.7-0.2,9.8,0.4c0,3.5,0,6.6-0.1,9.8
			c-3.2,0.1-6.5,0.1-9.7,0.1c0,3.4,0,6.6,0,9.8c3.3,0,6.4,0,9.6,0c0-3.4,0-6.6,0.1-9.8c6.7-0.1,13.4-0.1,20.1,0
			c0.1,3.2,0.1,6.5,0.1,9.7c3.4,0,6.6,0,9.8,0c0-3.3,0-6.4,0-9.6c-3.4,0-6.6,0-9.8-0.1c-0.1-3.4-0.1-6.6-0.1-9.9
			c3.5-0.4,6.8,0.2,10-0.3c0-3.5,0-6.6,0-9.8c3.3,0,6.7,0,10,0c0,13.3,0,26.7,0,40c-3.3,0-6.5,0-10,0c0,3.5,0,6.7,0,10
			c-20,0-40,0-60,0c0-6.6,0-13.2,0-20c2,0,3.6,0,5.2,0c1.6,0,3.2-0.1,4.6-0.2c0-10.1,0-19.9,0-29.6c-3.4,0-6.6,0-10,0
			c0,3.4,0,6.5,0,9.6c-3.4,0.3-6.7-0.2-9.8,0.3C276,549.7,276,552.8,276,556z"/>
		<path class="st4" d="M256,616c0-6.7,0-13.3,0-20c3.3,0,6.5,0,10,0c0-3.5,0-6.7,0-10c6.7,0,13.3,0,20,0c0,3.3,0,6.5,0,10
			c3.5,0,6.7,0,10,0c0,3.3,0,6.7,0,10c-3.3,0-6.5,0-10,0c0,3.5,0,6.7,0,10C276,616,266,616,256,616z"/>
		<path class="st5" d="M286,586c-6.7,0-13.3,0-20,0c0-3.2,0-6.3,0-9.8c3.2-0.5,6.5,0,10-0.3c0-6.7,0-13.3,0-19.9c0-3.2,0-6.3,0-9.8
			c3.2-0.5,6.5,0,9.8-0.3c0-3.2,0-6.3,0-9.6c3.4,0,6.6,0,10,0c0,9.7,0,19.5,0,29.6c-1.4,0-3,0.1-4.6,0.2c-1.6,0-3.3,0-5.2,0
			C286,572.8,286,579.4,286,586z"/>
		<path class="st6" d="M296,596c-3.3,0-6.5,0-10,0c0-3.5,0-6.7,0-10c20,0,40,0,60,0c3.3,0,6.7,0,10,0c0,3.3,0,6.7,0,10
			c-3.3,0-6.6,0-9.9,0c-0.4,3.5,0.2,6.8-0.3,10c-3.5,0-6.6,0-9.8,0c0-3.3,0-6.5,0-10C322.5,596,309.2,596,296,596z"/>
		<path class="st5" d="M356,576c0-13.3,0-26.7,0-40c3.2,0,6.3,0,9.8,0c0.5,3.2,0,6.5,0.3,9.8c3.1,0,6.3,0,9.7,0
			c0.1,1.7,0.1,3.3,0.2,4.9c0,1.6,0,3.3,0,5.1c-3.3,0-6.4,0-9.8,0c0,6.7,0,13.3,0,20.2C362.6,576,359.3,576,356,576z"/>
		<path class="st4" d="M336,606c3.2,0,6.3,0,9.8,0c0.5-3.2,0-6.5,0.3-10c3.3,0,6.6,0,9.9,0c0,6.7,0,13.3,0,20c-6.7,0-13.3,0-20,0
			C336,612.7,336,609.3,336,606z"/>
		<path class="st7" d="M256,616c10,0,20,0,30,0c0,3.2,0,6.3,0,9.5c-0.1,0.1-0.2,0.3-0.3,0.4c-0.1,0.1-0.3,0.2-0.4,0.2
			c-9.6,0-19.3,0-29.2,0C256,622.6,256,619.3,256,616z"/>
		<path class="st7" d="M336,616c6.7,0,13.3,0,20,0c0,3.3,0,6.5,0,10c-6.9,0-13.4,0-20,0C336,622.7,336,619.3,336,616z"/>
		<path class="st5" d="M356,536c-3.3,0-6.7,0-10,0c0-3.3,0-6.7,0-10c3.3,0,6.5,0,10,0C356,529.5,356,532.7,356,536z"/>
		<path class="st5" d="M356,586c-3.3,0-6.7,0-10,0c0-3.3,0-6.5,0-10c3.5,0,6.7,0,10,0C356,579.3,356,582.7,356,586z"/>
		<path class="st6" d="M266,586c0,3.3,0,6.5,0,10c-3.5,0-6.7,0-10,0c0-3.3,0-6.5,0-10C259.5,586,262.7,586,266,586z"/>
		<path class="st6" d="M286,616c0-3.3,0-6.5,0-10c3.5,0,6.7,0,10,0c0,3.3,0,6.5,0,10C292.5,616,289.3,616,286,616z"/>
		<path class="st6" d="M336,606c0,3.3,0,6.7,0,10c-3.3,0-6.7,0-10,0c0-3.3,0-6.5,0-10C329.5,606,332.7,606,336,606z"/>
		<path class="st8" d="M326,616c3.3,0,6.7,0,10,0c0,3.3,0,6.7,0,10c-3.3,0-6.5,0-10,0C326,622.5,326,619.3,326,616z"/>
		<path class="st9" d="M346,536c0,3.2,0,6.3,0,9.8c-3.2,0.5-6.5,0-10,0.3c0,3.3,0,6.6,0,9.9c-6.7,0-13.3,0-20,0c0-3.1,0-6.3,0-9.8
			c-3.2-0.6-6.4,0-9.8-0.4c0-3.2,0-6.4,0-9.9C319.5,536,332.8,536,346,536z"/>
		<path class="st9" d="M315.9,556.1c0,3.1,0,6.4,0,9.8c-3.2,0-6.3,0-9.6,0c0-3.2,0-6.4,0-9.8C309.5,556.1,312.7,556.1,315.9,556.1z"
			/>
		<path class="st9" d="M336.1,556.1c3.1,0,6.4,0,9.8,0c0,3.2,0,6.3,0,9.6c-3.2,0-6.4,0-9.8,0C336.1,562.5,336.1,559.3,336.1,556.1z"
			/>
	</g>
</g>
<g id="afro">
	<g>
		<path class="st10" d="M336,446c-3.2,0-6.3,0-9.8,0c-0.5,3.2,0,6.5-0.3,10c-3.3,0-6.6,0-9.9,0c0-3.3,0-6.5,0-10c-6.9,0-13.4,0-20,0
			c0-3.3,0-6.5,0-10.1c3.5,0,6.7,0,9.9,0c0-3.4,0-6.5,0-9.9c-6.7,0-13.3,0-19.9-0.1c-0.1-3.2-0.1-6.5-0.1-9.7c-3.4,0-6.6,0-9.8,0
			c0,3.3,0,6.4,0,9.6c3.4,0,6.6,0,9.8,0.1c0.1,3.4,0.1,6.6,0.1,10c-6.8,0-13.2,0-20,0c0-6.7,0-13.2,0-20c-3.5,0-6.6,0-9.7,0
			c0-3.4,0-6.6,0-10c3.3,0,6.5,0,9.5,0c0-3.4,0-6.7,0-10c-3.4,0-6.5,0-9.6,0c-0.4-3.4,0.2-6.7-0.4-10c-6.7,0-13.2,0-19.6,0
			c0-6.6,0-13.1,0-19.9c3.3,0,6.6,0,10,0c0-3.5,0-6.6,0-10c6.7,0,13.3,0,19.8,0c0-3.5,0-6.6,0-9.9c-6.5,0-12.8,0-19.1,0
			c-0.1,0-0.3-0.1-0.4-0.2c-0.1-0.1-0.2-0.2-0.4-0.3c0-3.2,0-6.4,0-9.5c6.7,0,13.3,0,20,0c3.3,0,6.5,0,10,0c0-3.5,0-6.7,0-10
			c6.7,0,13.3,0,20,0c0,3.3,0,6.5,0,10c3.5,0,6.7,0,10,0c6.7,0,13.3,0,20,0c3.3,0,6.5,0,10,0c0-3.5,0-6.7,0-10c3.3,0,6.7,0,10,0
			c0,3.3,0,6.5,0,10c3.5,0,6.7,0,10,0c0,3.3,0,6.6,0,9.9c3.5,0.4,6.8-0.2,10,0.3c0,3.5,0,6.6,0,9.9c-6.6,0.1-13.2,0.1-20,0.1
			c0,1.8,0,3.5,0,5.1c0,1.6,0.1,3.2,0.2,4.9c3.5,0,6.6,0,9.9,0c0,6.6,0,13.1,0,19.6c3.4,0,6.6,0,10,0c0-3.3,0-6.4,0-9.9
			c3.4,0,6.7,0,9.8,0c0-3.5,0-6.6,0-9.8c-3.4-0.3-6.7,0.2-9.8-0.3c0-3.5,0-6.6,0-9.7c3.3-0.1,6.5-0.1,10-0.1c0-3.5,0-6.7,0-10
			c3.3,0,6.7,0,10,0c0,3.3,0,6.5,0,10c3.5,0,6.7,0,10,0c0,3.3,0,6.7,0,10c-3.3,0-6.5,0-10,0c0,3.5,0,6.7,0,10c0,6.7,0,13.3,0,20.1
			c-3.3,0.1-6.6,0.1-10,0.1c0,3.3,0,6.4,0,9.9c-3.4,0-6.7,0-9.9,0c0,3.5,0,6.6,0,10c3.3,0,6.6,0,10,0c0,3.5,0,6.6,0,9.7
			c6.7,0,13.3,0,19.7,0c0-6.7,0-13.1,0-19.7c-3.4-0.3-6.7,0.2-9.8-0.3c0-3.5,0-6.6,0-9.7c3.3-0.1,6.5-0.1,10-0.1c0-3.5,0-6.7,0-10
			c3.3,0,6.7,0,10,0c0,3.3,0,6.5,0,10c3.5,0,6.7,0,10,0c0,6.6,0,13.2,0,19.9c-3.5,0.3-6.8-0.2-10,0.3c0,3.5,0,6.6,0,9.8
			c0,3.3,0,6.5,0,10.1c-3.5,0-6.7,0-10.1,0c0,3.4,0,6.5,0,9.9c-6.7,0-13.3,0-19.9,0c0-3.3,0-6.6,0-10c-3.5,0-6.6,0-10,0
			c0-3.4,0-6.7,0-9.9c-3.5,0-6.6,0-10.1,0c0,3.4,0,6.6,0,10c-3.5,0-6.6,0-10.1,0c0,3.4,0,6.7,0,9.9C342.3,446,339.2,446,336,446z
			 M336.2,406c0,7,0,13.4,0,20c1.8,0,3.4,0,5.1,0c1.6,0,3.2-0.1,4.9-0.2c0-3.5,0-6.6,0-9.7c3.4-0.4,6.7,0.2,9.7-0.3
			c0-3.5,0-6.6,0-9.7c-3.4-0.4-6.7,0.2-10-0.4c0-3.4,0-6.5,0-9.8c-6.7,0.2-13.3-0.2-19.6,0.2c0,3.5,0,6.6,0,9.8
			C329.5,406,332.6,406,336.2,406z M276.2,376c0,3.6,0,6.7,0,10.2c6.7,0,13.3,0,20,0c0,3.4,0,6.6,0,9.8c1.8,0,3.4,0,5.1,0
			c1.6,0,3.2-0.1,4.6-0.2c0-6.8,0-13.2,0-20c-3.4,0-6.6,0-10,0c0-3.5,0-6.6,0-9.8c-1.8,0-3.4,0-5.1,0c-1.6,0-3.2,0.1-4.9,0.2
			c0,3.5,0,6.6,0,9.8C282.6,376,279.4,376,276.2,376z M316,365.8c3.6,0,6.7,0,9.8,0c0-6.7,0-13.3,0-19.7c-6.7,0-13.1,0-19.5,0
			c0,3.4,0,6.6,0,10c3.4,0,6.5,0,9.7,0C316,359.4,316,362.5,316,365.8z"/>
		<path class="st0" d="M346,326c-3.3,0-6.7,0-10,0c-3.3,0-6.5,0-10,0c0,3.5,0,6.7,0,10c-6.7,0-13.3,0-20,0c0-3.3,0-6.5,0-10
			c-3.5,0-6.7,0-10,0c-6.7,0-13.3,0-20,0c-3.3,0-6.5,0-10,0c0,3.5,0,6.7,0,10c-6.7,0-13.3,0-20,0c-3.3,0-6.6,0-10,0
			c0,3.5,0,6.6,0,10.1c-3.4,0-6.7,0-10.1,0c0,3.5,0,6.6,0,10.1c-3.4,0-6.7,0-10.1,0c0,3.5,0,6.6,0,9.8c-3.4,0.3-6.7-0.2-10,0.3
			c0,6.7,0,13.2,0,19.8c-3.3,0-6.4,0-9.6,0c0,10.1,0,20,0,30c3.3,0,6.4,0,9.6,0c0,3.4,0,6.7,0,10.1c-3.3,0-6.5,0-9.6,0
			c-0.6,11.6-0.4,35.8,0.3,39.9c3.2,0,6.3,0,9.5,0c0,6.7,0,13.3,0,20c-3.2,0-6.3,0-9.8,0c-0.1-1.6-0.1-3.2-0.2-4.8
			c0-1.6,0-3.3,0-5.1c-3.3,0-6.4,0-9.9,0c0-3.4,0-6.6,0-10.1c-3.5,0-6.6,0-9.9,0c0-13.3,0-26.4,0-39.9c3-0.5,6.3,0.1,9.6-0.3
			c0-3.2,0-6.3,0-9.8c-3.1,0-6.3,0-9.7,0c0-10.1,0-19.9,0-30.1c3.2,0,6.4,0,9.8,0c0-6.8,0-13.3,0-19.9c3.3,0,6.4,0,9.9,0
			c0-2.3,0.1-4.4,0.1-6.5c0-2.3,0-4.7,0-7c0-2.1,0-4.3,0-6.6c3.3,0,6.4,0,9.9,0c0-3.4,0-6.6,0-10.1c6.8,0,13.3,0,19.9,0
			c0-3.3,0-6.4,0-9.8c3.4-0.6,6.7,0,10-0.4c0-3.2,0-6.3,0-9.8c10.1,0,20,0,30.1,0c0-3.5,0-6.6,0-9.9c13.4,0,26.6,0,40.1,0
			c0,3.2,0,6.3,0,9.6c6.6,0,13.1,0,19.9,0c0-3,0-6.3,0-9.7c10.1,0,19.9,0,30.1,0c0,3.1,0,6.4,0,9.8c6.8,0,13.3,0,19.9,0
			c0,3.3,0,6.4,0,10c6.7,0.1,13.3,0,20,0.1c0,3.3,0,6.4,0,9.9c3.4,0,6.6,0,10.1,0c0,3.5,0,6.6,0,10.1c3.4,0,6.7,0,10.1,0
			c0,6.8,0,13.3,0,19.9c3.3,0,6.4,0,9.9,0c0,2.3,0.1,4.4,0.1,6.5c0,2.3,0,4.7,0,7c0,2.1,0,4.3,0,6.6c3.3,0,6.4,0,9.8,0
			c0,10.1,0,20,0,30.1c-3.2,0-6.3,0-9.6,0c0,3.3,0,6.4,0,9.9c3,0.5,6.3-0.1,9.6,0.3c0,6.5,0,13,0,19.8c-3.1,0-6.3,0-9.7,0
			c0,6.8,0,13.3,0,20.1c-3.4,0-6.7,0-10.1,0c0,3.5,0,6.6,0,10.1c-6.8,0-13.4,0-20,0c0-3.3,0-6.5,0-10.1c3.5,0,6.8,0,10.1,0
			c0-6.8,0-13.2,0-19.9c3.4,0,6.6,0,9.8,0c0-6.8,0-13.2,0-19.9c-3.4,0-6.6,0-9.9,0c0-3.2,0-6.3,0-9.8c3.2-0.5,6.5,0,10-0.3
			c0-6.7,0-13.3,0-19.9c0-3.3,0-6.5,0-10c-3.5,0-6.7,0-10,0c0-6.6,0-13.1,0-20c-3.5,0-6.7,0-10,0c0-3.3,0-6.7,0-10c0-3.3,0-6.5,0-10
			c-3.5,0-6.7,0-10,0c-3.3,0-6.7,0-10,0c0-3.3,0-6.5,0-10c-6.9,0-13.4,0-20,0c0-3.3,0-6.5,0-10C352.5,326,349.3,326,346,326z"/>
		<path class="st11" d="M206,466c-3.2,0-6.3,0-9.5,0c-0.7-4-0.9-28.3-0.3-39.9c3.1,0,6.2,0,9.6,0c0-3.4,0-6.6,0-10.1
			c-3.1,0-6.2,0-9.6,0c0-10.1,0-20,0-30c3.2,0,6.3,0,9.6,0c0-6.6,0-13.1,0-19.8c3.4-0.5,6.7,0,10-0.3c0-3.2,0-6.3,0-9.8
			c3.4,0,6.6,0,10.1,0c0-3.5,0-6.6,0-10.1c3.4,0,6.6,0,10.1,0c0-3.5,0-6.6,0-10.1c3.5,0,6.7,0,10,0c0,3.2,0,6.3,0,9.5
			c0.1,0.1,0.2,0.2,0.4,0.3c0.1,0.1,0.3,0.2,0.4,0.2c6.3,0,12.6,0,19.1,0c0,3.3,0,6.4,0,9.9c-6.4,0-13,0-19.8,0c0,3.5,0,6.6,0,10
			c-3.4,0-6.6,0-10,0c0,6.8,0,13.2,0,19.9c6.5,0,12.9,0,19.6,0c0.6,3.4,0,6.6,0.4,10c3.1,0,6.3,0,9.6,0c0,3.4,0,6.6,0,10
			c-3.1,0-6.2,0-9.5,0c0,3.4,0,6.6,0,10c3.2,0,6.3,0,9.7,0c0,6.7,0,13.3,0,20c6.8,0,13.2,0,20,0c0-3.3,0-6.6,0-9.9
			c6.6,0,13.2,0,19.9,0c0,3.3,0,6.4,0,9.9c-3.1,0-6.4,0-9.9,0c0,3.6,0,6.9,0,10.1c-6.6,0-13.2,0-19.9,0c0,3.4,0,6.5,0,9.9
			c-3.4,0-6.6,0-10,0c0,3.4,0,6.5,0,10c-3.4,0-6.6,0-10.1,0c0,6.3,0,12.2,0,18.1c-0.6,0-1.2,0-2,0c0,0.8,0,1.4,0,2c-2.3,0-4.7,0-7,0
			c-0.3-0.3-0.7-0.7-1-1c0-6.2,0-12.3,0-18.8c-3.2-0.5-6.5,0-10-0.4c0-3.3,0-6.6,0-9.9c0-3.3,0-6.6,0-10c-6.9,0.2-13.5-0.2-20,0.2
			c0,3.5,0,6.7,0,9.8c-3.3,0-6.5,0-10,0C206,459.5,206,462.7,206,466z M245.8,415.9c0-6.9,0-13.3,0-19.9c-6.7,0.1-13.3-0.1-19.7,0.1
			c0,3.5,0,6.7,0,9.9c1.8,0,3.4,0,5.1,0c1.6,0,3.2,0.1,4.9,0.2c0,3.5,0,6.6,0,9.7C239.5,415.9,242.6,415.9,245.8,415.9z"/>
		<path class="st11" d="M406,426c3.3,0,6.5,0,9.9,0c0,6.7,0,13.2,0,19.9c-3.2,0-6.4,0-9.8,0c0,6.8,0,13.2,0,19.9
			c-3.3,0-6.6,0-10.1,0c0,3.6,0,6.9,0,10.1c-3.3,0-6.5,0-9.9,0c0-6.7,0-13.1,0-19.9c-3.3,0-6.6,0-10.1,0c0-3.6,0-6.9,0-10.1
			c6.6,0,13.2,0,19.9,0c0-3.3,0-6.4,0-9.9c3.4,0,6.6,0,10.1,0C406,432.5,406,429.3,406,426z"/>
		<path class="st11" d="M336,446c3.2,0,6.3,0,9.8,0c0-3.2,0-6.5,0-9.9c3.5,0,6.6,0,10.1,0c0-3.4,0-6.6,0-10c3.5,0,6.6,0,10.1,0
			c0,3.2,0,6.4,0,9.9c3.5,0,6.6,0,10,0c0,3.4,0,6.7,0,10c-6.6,0-13.2,0-19.9,0c0,3.4,0,6.5,0,9.8c-6.7,0-13.2,0-20.1,0
			C336,452.5,336,449.3,336,446z"/>
		<path class="st0" d="M216,456c0-3.2,0-6.3,0-9.8c6.5-0.4,13.1-0.1,20-0.2c0,3.5,0,6.8,0,10C229.3,456,222.7,456,216,456z"/>
		<path class="st11" d="M296,446c6.6,0,13.1,0,20,0c0,3.5,0,6.7,0,10c-6.6,0-13.1,0-20,0C296,452.5,296,449.3,296,446z"/>
		<path class="st0" d="M206,466c0-3.3,0-6.5,0-10c3.5,0,6.7,0,10,0c0,3.3,0,6.5,0,10C212.5,466,209.3,466,206,466z"/>
		<path class="st0" d="M216,487c0,2.7,0,5.3,0,8c-0.3,0.3-0.7,0.7-1,1c-2.7,0-5.3,0-8,0c-0.3-0.3-0.7-0.7-1-1c0-3,0-6,0-9
			c3,0,6,0,9,0C215.3,486.3,215.7,486.7,216,487z"/>
		<path class="st11" d="M254,486c0-0.6,0-1.2,0-2c0.8,0,1.4,0,2,0c0,0.6,0,1.2,0,2C255.2,486,254.6,486,254,486z"/>
		<path class="st11" d="M246,485c0.3,0.3,0.7,0.7,1,1C246.7,485.7,246.3,485.3,246,485z"/>
		<path class="st0" d="M216,487c-0.3-0.3-0.7-0.7-1-1C215.3,486.3,215.7,486.7,216,487z"/>
		<path class="st0" d="M206,495c0.3,0.3,0.7,0.7,1,1C206.7,495.7,206.3,495.3,206,495z"/>
		<path class="st0" d="M215,496c0.3-0.3,0.7-0.7,1-1C215.7,495.3,215.3,495.7,215,496z"/>
		<path class="st11" d="M386,396.2c0,3,0,6.2,0,9.6c3.2,0.5,6.5,0,9.8,0.3c0,6.5,0,13,0,19.7c-6.4,0-13,0-19.7,0c0-3.1,0-6.2,0-9.7
			c-3.4,0-6.6,0-10,0c0-3.5,0-6.6,0-10c3.2,0,6.5,0,9.9,0c0-3.5,0-6.6,0-9.9C379.4,396.2,382.7,396.2,386,396.2z"/>
		<path class="st12" d="M336.2,406c-3.6,0-6.7,0-10,0c0-3.3,0-6.4,0-9.8c6.4-0.4,12.9-0.1,19.6-0.2c0,3.3,0,6.4,0,9.8
			c3.4,0.6,6.6,0,10,0.4c0,3.1,0,6.2,0,9.7c-3,0.5-6.3-0.1-9.7,0.3c0,3.1,0,6.2,0,9.7c-1.7,0.1-3.3,0.1-4.9,0.2c-1.6,0-3.3,0-5.1,0
			C336.2,419.4,336.2,413,336.2,406z"/>
		<path class="st11" d="M276.2,376c3.3,0,6.4,0,9.7,0c0-3.3,0-6.4,0-9.8c1.7-0.1,3.3-0.1,4.9-0.2c1.6,0,3.3,0,5.1,0
			c0,3.3,0,6.4,0,9.8c3.4,0,6.6,0,10,0c0,6.8,0,13.2,0,20c-1.4,0-3,0.1-4.6,0.2c-1.6,0-3.3,0-5.1,0c0-3.3,0-6.4,0-9.8
			c-6.7,0-13.3,0-20,0C276.2,382.7,276.2,379.6,276.2,376z"/>
		<path class="st11" d="M366,356.2c0,3,0,6.2,0,9.6c3.2,0.5,6.5,0,9.8,0.3c0,3.2,0,6.3,0,9.8c-3.1,0-6.3,0-9.8,0c0,3.5,0,6.6,0,9.9
			c-3.4,0-6.6,0-10,0c0-6.5,0-13,0-19.6c-3.3,0-6.4,0-9.9,0c-0.1-1.7-0.1-3.3-0.2-4.9c0-1.6,0-3.3,0-5.1
			C352.8,356.2,359.4,356.2,366,356.2z"/>
		<path class="st11" d="M396,366c3.3,0,6.5,0,10,0c0,6.9,0,13.4,0,20c-3.3,0-6.7,0-10,0c0-3.3,0-6.5,0-10c-3.5,0-6.7,0-10,0
			c0-3.3,0-6.5,0-10C389.5,366,392.7,366,396,366z"/>
		<path class="st12" d="M316,365.8c0-3.3,0-6.4,0-9.7c-3.3,0-6.4,0-9.7,0c0-3.4,0-6.6,0-10c6.4,0,12.8,0,19.5,0c0,6.4,0,13,0,19.7
			C322.7,365.8,319.6,365.8,316,365.8z"/>
		<path class="st12" d="M356,336c6.6,0,13.1,0,20,0c0,3.5,0,6.7,0,10c0,3.3,0,6.5,0,10c-3.5,0-6.7,0-10,0c0-3.2,0-6.3,0-9.8
			c-3.2-0.5-6.5,0-10-0.3C356,342.6,356,339.3,356,336z"/>
		<path class="st12" d="M386,376c3.3,0,6.5,0,10,0c0,3.5,0,6.7,0,10s0,6.5,0,10c-3.5,0-6.7,0-10,0C386,389.3,386,382.7,386,376z"/>
		<path class="st11" d="M406,386c3.3,0,6.5,0,10,0c0,3.5,0,6.7,0,10c-3.3,0-6.5,0-10,0C406,392.5,406,389.3,406,386z"/>
		<path class="st11" d="M386,346c3.3,0,6.5,0,10,0c0,3.5,0,6.7,0,10c-3.3,0-6.5,0-10,0C386,352.5,386,349.3,386,346z"/>
		<path class="st11" d="M346,326c3.3,0,6.5,0,10,0c0,3.5,0,6.7,0,10c-3.3,0-6.5,0-10,0C346,332.5,346,329.3,346,326z"/>
		<path class="st11" d="M285.9,425.9c-3.1,0-6.4,0-9.8,0c0-3.2,0-6.3,0-9.6c3.2,0,6.4,0,9.8,0C285.9,419.5,285.9,422.7,285.9,425.9z
			"/>
		<path class="st11" d="M326,336c0-3.3,0-6.5,0-10c3.5,0,6.7,0,10,0c0,3.3,0,6.5,0,10C332.5,336,329.3,336,326,336z"/>
		<path class="st11" d="M296,326c3.3,0,6.5,0,10,0c0,3.5,0,6.7,0,10c-3.3,0-6.5,0-10,0C296,332.5,296,329.3,296,326z"/>
		<path class="st11" d="M266,336c0-3.3,0-6.5,0-10c3.5,0,6.7,0,10,0c0,3.3,0,6.5,0,10C272.5,336,269.3,336,266,336z"/>
		<path class="st10" d="M245.8,415.9c-3.3,0-6.4,0-9.7,0c0-3.2,0-6.3,0-9.7c-1.7-0.1-3.3-0.1-4.9-0.2c-1.6,0-3.3,0-5.1,0
			c0-3.3,0-6.4,0-9.9c6.4-0.2,12.9,0,19.7-0.1C245.8,402.6,245.8,409,245.8,415.9z"/>
	</g>
</g>
<g id="asymmetrical">
	<g>
		<path class="st0" d="M227,386c2.9,0,5.8,0,9,0c0-3.2,0-6.1,0-9c0.3-0.3,0.7-0.7,1-1c2.8,0,5.7,0,8.8,0c0-3.2,0-6.5,0-9.9
			c3.5,0,6.6,0,10.1,0c0-3.4,0-6.6,0-10c6.8,0,13.2,0,20,0c0-3.4,0-6.6,0-10c20.1,0,39.9,0,59.9,0c0,3.1,0,6.2,0,9.7
			c6.7,0.4,13.3,0,20,0.3c0,3.2,0,6.3,0,9.8c3.4,0,6.6,0,10.1,0c0,3.5,0,6.6,0,10.1c3.4,0,6.6,0,10.1,0c0,3.5,0,6.6,0,10.1
			c3.4,0,6.6,0,10,0c0,6.8,0,13.2,0,20c3.1,0,6.1,0,9,0c0.3,0.3,0.7,0.7,1,1c0,6.3,0,12.5,0,18.9c3.4,0,6.5,0,9.9,0
			c0,13.3,0,26.5,0,40.1c3.2,0,6.2,0,9.1,0c0.3,0.3,0.7,0.7,1,1c0,6,0,12,0,18c-0.3,0.3-0.7,0.7-1,1c-12.7,0-25.3,0-38,0
			c-0.3-0.3-0.7-0.7-1-1c0-2.7,0-5.3,0-8c0.3-0.3,0.7-0.7,1-1c6.3,0,12.6,0,19,0c0-2,0-3.6,0-5.2c0-1.6-0.1-3.2-0.2-4.8
			c-3.2,0-6,0-8.8,0c-0.3-0.3-0.7-0.7-1-1c0-6.5,0-12.9,0-19.4c0-6.5,0.2-13.1-0.1-19.6c-3.2,0-6,0-8.9,0c-0.3-0.3-0.7-0.7-1-1
			c0-3,0-6,0-9c0-3.3,0-6.5,0-10c-3.5,0-6.7,0-10,0c0-3.3,0-6.7,0-10c0-3.3,0-6.5,0-10c-3.5,0-6.7,0-10,0c0-3.3,0-6.5,0-10
			c-3.5,0-6.7,0-10,0c-3.3,0-6.7,0-10,0c0-3.3,0-6.5,0-10c-3.5,0-6.7,0-10,0c-10,0-20,0-30,0c-6.6,0-13.2,0-20.1,0
			c0,3.5,0,6.7,0,10.1c-6.8,0-13.2,0-20,0c0,3.4,0,6.6,0,10c-3.4,0-6.6,0-9.9,0c0,6.4,0,12.7,0,18.9c-0.3,0.3-0.7,0.7-1,1
			c-2.9,0-5.9,0-9,0c0,16.5,0,32.8,0,49c-0.3,0.3-0.7,0.7-1,1c-6,0-12,0-18,0c-0.3-0.3-0.7-0.7-1-1c0-16,0-32,0-48
			c0.3-0.3,0.7-0.7,1-1c2.9,0,5.9,0,9,0c0-6.5,0-12.8,0-19C226.3,386.7,226.7,386.3,227,386z"/>
		<path class="st11" d="M236,455c0-16.2,0-32.5,0-49c3.1,0,6.1,0,9,0c0.3-0.3,0.7-0.7,1-1c0-6.3,0-12.5,0-18.9c3.4,0,6.5,0,9.9,0
			c0-3.4,0-6.6,0-10c6.8,0,13.2,0,20,0c0-3.4,0-6.6,0-10.1c6.9,0,13.5,0,20.1,0c0,3.3,0,6.6,0,9.9c-3.5,0.4-6.8-0.2-10,0.3
			c0,3.5,0,6.6,0,9.8c-3.3,0-6.6,0-10.1,0c0,6.9,0,13.4,0,20.1c-3.4,0-6.5,0-9.9,0c0,16.7,0,33.3,0,49.9c0,3.2,0,6.3,0,9.8
			c-3.2,0.5-6.5,0-9.8,0.3c0,6.5,0,12.9,0,19.7c-1.7,0.1-3.3,0.1-4.9,0.2c-1.6,0-3.3,0-5.1,0c0-6.6,0-13,0-19.8
			c-3.3-0.5-6.6,0-10.2-0.4c0-3.3,0-6.6,0-9.9C236,455.7,236,455.3,236,455z"/>
		<path class="st11" d="M377,426c2.8,0,5.6,0,8.9,0c0.3,6.5,0.1,13.1,0.1,19.6c0,6.5,0,12.9,0,19.4c0.3,0.3,0.7,0.7,1,1
			c2.8,0,5.7,0,8.8,0c0.1,1.6,0.1,3.2,0.2,4.8c0,1.6,0,3.3,0,5.2c-6.4,0-12.7,0-19,0c-0.3,0-0.7,0-1,0c-3.2,0-6.3,0-9.8,0
			c0-3.2,0-6.5,0-9.9c-3.5,0-6.6,0-10.1,0c0-3.4,0-6.6,0-10.1c-3.5,0-6.6,0-10.1,0c0-3.4,0-6.6,0-10.1c-6.8,0-13.2,0-20,0
			c0-3.4,0-6.7,0-10c6.7,0,13.3,0,20,0c3.3,0,6.6,0,9.9,0c0.4,3.5-0.2,6.8,0.3,10c3.5,0,6.6,0,9.8,0c0,3.3,0,6.6,0,10
			c2,0,3.6,0,5.3,0c1.6,0,3.2-0.1,4.7-0.2c0-10.2,0-20,0-29.8C376.3,426,376.7,426,377,426z"/>
		<path class="st10" d="M266,456c0-16.6,0-33.1,0-49.9c3.3,0,6.4,0,9.9,0c0-6.7,0-13.3,0-20.1c3.6,0,6.9,0,10.1,0c0,6.6,0,13.1,0,20
			c3.5,0,6.7,0,10,0c0,3.3,0,6.7,0,10c-3.3,0-6.5,0-10,0c0,3.5,0,6.7,0,10c0,3.3,0,6.7,0,10c-3.3,0-6.5,0-10,0c0,3.5,0,6.7,0,10
			s0,6.5,0,10C272.5,456,269.3,456,266,456z"/>
		<path class="st11" d="M326,436c-6.6,0-13.1,0-20,0c0-3.5,0-6.7,0-10c6.7,0,13.3,0,20,0C326,429.3,326,432.7,326,436z"/>
		<path class="st11" d="M296,416c0-3.3,0-6.7,0-10c3.3,0,6.5,0,10,0c0,6.9,0,13.4,0,20c-3.3,0-6.7,0-10,0
			C296,422.7,296,419.3,296,416z"/>
		<path class="st11" d="M286,436c0-3.3,0-6.7,0-10c3.3,0,6.7,0,10,0c0,3.3,0,6.5,0,10C292.5,436,289.3,436,286,436z"/>
		<path class="st11" d="M276,446c0-3.3,0-6.5,0-10c3.5,0,6.7,0,10,0c0,3.3,0,6.5,0,10C282.5,446,279.3,446,276,446z"/>
		<path class="st0" d="M396,407c-0.3-0.3-0.7-0.7-1-1C395.3,406.3,395.7,406.7,396,407z"/>
		<path class="st0" d="M217,406c-0.3,0.3-0.7,0.7-1,1C216.3,406.7,216.7,406.3,217,406z"/>
		<path class="st0" d="M227,386c-0.3,0.3-0.7,0.7-1,1C226.3,386.7,226.7,386.3,227,386z"/>
		<path class="st0" d="M237,376c-0.3,0.3-0.7,0.7-1,1C236.3,376.7,236.7,376.3,237,376z"/>
		<path class="st0" d="M216,455c0.3,0.3,0.7,0.7,1,1C216.7,455.7,216.3,455.3,216,455z"/>
		<path class="st0" d="M236,455c0,0.3,0,0.7,0,1c-0.3,0-0.7,0-1,0C235.3,455.7,235.7,455.3,236,455z"/>
		<path class="st0" d="M416,467c-0.3-0.3-0.7-0.7-1-1C415.3,466.3,415.7,466.7,416,467z"/>
		<path class="st0" d="M376,476c0.3,0,0.7,0,1,0c-0.3,0.3-0.7,0.7-1,1C376,476.7,376,476.3,376,476z"/>
		<path class="st0" d="M376,485c0.3,0.3,0.7,0.7,1,1C376.7,485.7,376.3,485.3,376,485z"/>
		<path class="st0" d="M415,486c0.3-0.3,0.7-0.7,1-1C415.7,485.3,415.3,485.7,415,486z"/>
		<path class="st10" d="M306,426c0-6.6,0-13.1,0-20c-3.5,0-6.7,0-10,0c0-6.6,0-13.1,0-20c-3.5,0-6.7,0-10,0c0-3.2,0-6.3,0-9.8
			c3.2-0.5,6.5,0,10-0.3c0-3.3,0-6.6,0-9.9c10,0,20,0,30,0c0,3.3,0,6.5,0,10c3.5,0,6.7,0,10,0c3.3,0,6.7,0,10,0c0,3.3,0,6.5,0,10
			c3.5,0,6.7,0,10,0c0,3.3,0,6.5,0,10c3.5,0,6.7,0,10,0c0,3.3,0,6.7,0,10c0,3.3,0,6.5,0,10c3.5,0,6.7,0,10,0c0,3,0,6,0,9
			c0,0.3,0,0.7,0,1c0,9.8,0,19.6,0,29.8c-1.6,0.1-3.1,0.1-4.7,0.2c-1.6,0-3.3,0-5.3,0c0-3.4,0-6.7,0-10c0-6.6,0-13.2,0-20
			c-6.8,0-13.4,0-20,0c0-3.3,0-6.6,0-10c-6.9,0.2-13.5-0.2-20,0.2c0,3.5,0,6.7,0,9.8C319.3,426,312.7,426,306,426z"/>
		<path class="st11" d="M376,416c-3.3,0-6.5,0-10,0c0-3.5,0-6.7,0-10c3.3,0,6.5,0,10,0C376,409.5,376,412.7,376,416z"/>
		<path class="st11" d="M366,396c-3.3,0-6.5,0-10,0c0-3.5,0-6.7,0-10c3.3,0,6.5,0,10,0C366,389.5,366,392.7,366,396z"/>
		<path class="st11" d="M356,386c-3.3,0-6.5,0-10,0c0-3.5,0-6.7,0-10c3.3,0,6.5,0,10,0C356,379.5,356,382.7,356,386z"/>
		<path class="st11" d="M336,376c-3.3,0-6.5,0-10,0c0-3.5,0-6.7,0-10c3.3,0,6.5,0,10,0C336,369.5,336,372.7,336,376z"/>
		<path class="st0" d="M246,405c-0.3,0.3-0.7,0.7-1,1C245.3,405.7,245.7,405.3,246,405z"/>
		<path class="st0" d="M376,426c0-0.3,0-0.7,0-1c0.3,0.3,0.7,0.7,1,1C376.7,426,376.3,426,376,426z"/>
		<path class="st0" d="M387,466c-0.3-0.3-0.7-0.7-1-1C386.3,465.3,386.7,465.7,387,466z"/>
		<path class="st12" d="M346,426c6.6,0,13.2,0,20,0c0,6.8,0,13.4,0,20c-3.2,0-6.3,0-9.8,0c-0.5-3.2,0-6.5-0.3-10c-3.3,0-6.6,0-9.9,0
			C346,432.7,346,429.3,346,426z"/>
		<path class="st10" d="M346,426c0,3.3,0,6.7,0,10c-6.7,0-13.3,0-20,0c0-3.3,0-6.7,0-10C332.7,426,339.3,426,346,426z"/>
		<path class="st11" d="M286,386c3.3,0,6.5,0,10,0c0,6.9,0,13.4,0,20c-3.3,0-6.5,0-10,0C286,399.1,286,392.6,286,386z"/>
		<path class="st12" d="M296,426c-3.3,0-6.7,0-10,0c0-3.3,0-6.5,0-10c3.5,0,6.7,0,10,0C296,419.3,296,422.7,296,426z"/>
		<path class="st12" d="M346,426c-6.7,0-13.3,0-20,0c0-3.2,0-6.3,0-9.8c6.5-0.4,13.1-0.1,20-0.2C346,419.4,346,422.7,346,426z"/>
	</g>
</g>
<g id="braids">
	<g>
		<path class="st0" d="M236,376c0-3.2,0-6.3,0-9.5c0.1-0.1,0.2-0.3,0.4-0.3c0.1-0.1,0.3-0.1,0.4-0.1c9.5,0,19,0,28.5,0
			c0.1,0,0.3-0.1,0.6-0.3c0-3,0-6.1,0-9.5c26.7,0,53.3,0,80.1,0c0,3.2,0,6.3,0,9.6c6.6,0,13.1,0,19.9,0c0.1,1.8,0.1,3.3,0.2,4.9
			c0,1.6,0,3.3,0,5.1c6.6,0,13.1,0,19.9,0c0,3.4,0,6.6,0,10.1c3.5,0,6.6,0,10.1,0c0,3.4,0,6.7,0,10.1c3.5,0,6.6,0,10.1,0
			c0,6.8,0,13.4,0,20c-3.3,0-6.7,0-10,0c0-3.3,0-6.5,0-10c-3.5,0-6.7,0-10,0c0-3.3,0-6.5,0-10.1c-6.8,0-13.4,0-20,0
			c0-3.4,0-6.5,0-9.9c-3.4,0-6.7,0-10,0c-3.3,0-6.7,0-10,0c0-3.3,0-6.6,0-9.8c-26.8,0-53.3,0-79.9,0c-0.4,3.4,0.2,6.7-0.3,9.8
			c-3.5,0-6.6,0-9.8,0c-3.3,0-6.7,0-10,0c0-3.3,0-6.5,0-10C242.5,376,239.3,376,236,376z"/>
		<path class="st11" d="M256,386c3.2,0,6.3,0,9.8,0c0.5-3.2,0-6.5,0.3-9.8c26.5,0,53,0,79.9,0c0,3.3,0,6.5,0,9.8
			c-6.6,0-13.2,0-19.8,0c0,6.9,0,13.4,0,20.1c3.4,0,6.5,0,9.9,0c0,3.4,0,6.6,0,10c6.8,0,13.2,0,20,0c0,3.4,0,6.6,0,10
			c3.5,0,6.6,0,9.7,0c0.4,3.4-0.2,6.7,0.3,9.8c3.5,0,6.6,0,9.8,0c0,3.3,0,6.7,0,10s0,6.7,0,10c-3.3,0-6.7,0-10,0c0-3.2,0-6.3,0-9.8
			c-3.2-0.5-6.5,0-9.8-0.3c0-3.1,0-6.3,0-9.3c-0.3-0.2-0.4-0.4-0.5-0.5c-0.1-0.1-0.3-0.2-0.4-0.2c-6.3,0-12.6,0-19,0
			c0-3.3,0-6.4,0-9.8c-1.7-0.1-3.3-0.1-4.9-0.2c-1.6,0-3.3,0-5.1,0c0,3.3,0,6.4,0,9.4c-0.3,0.3-0.4,0.4-0.5,0.5
			c-0.1,0.1-0.3,0.2-0.4,0.2c-6.3,0-12.6,0-19,0c0,3.3,0,6.4,0,9.8c-1.7,0.1-3.3,0.1-4.9,0.2c-1.6,0-3.3,0-5.2,0c0,3.4,0,6.7,0,10
			c-3.3,0-6.7,0-10,0c0-3.3,0-6.7,0-10c0-3.3,0-6.6,0-10c3.5,0,6.6,0,10.1,0c0-3.4,0-6.7,0-10.1c3.5,0,6.6,0,10.1,0
			c0-3.4,0-6.7,0-10.1c3.5,0,6.6,0,9.9,0c-0.1-6.7,0.1-13.3-0.2-19.9c-3.5,0-6.7,0-9.9,0c0-3.3,0-6.6,0-10c-6.9,0.2-13.5-0.2-20,0.2
			c0,3.5,0,6.7,0,9.8c-6.7,0-13.3,0-20,0c-3.3,0-6.7,0-10,0C256,392.7,256,389.3,256,386z"/>
		<path class="st0" d="M236,456c-6.5,0-13,0-19.8,0c-0.5-3.2,0-6.5-0.3-9.8c-3.1,0-6.3,0-9.6,0c0-13.4,0-26.6,0-40.2
			c3.2,0,6.5,0,9.8,0c0,3.3,0,6.7,0,10c0,3.3,0,6.6,0,10c2,0,3.6,0,5.2,0c1.6,0,3.2-0.1,4.8-0.2c0-3.5,0-6.7,0-9.8c0-3.3,0-6.7,0-10
			c3.3,0,6.7,0,10,0c0,3.3,0,6.7,0,10s0,6.7,0,10s0,6.7,0,10C236,442.7,236,449.3,236,456z"/>
		<path class="st10" d="M306,396c3.2,0,6.3,0,9.9,0c0.3,6.6,0,13.1,0.2,19.9c-3.3,0-6.5,0-9.9,0c0,3.4,0,6.6,0,10.1
			c-3.5,0-6.6,0-10.1,0c0,3.4,0,6.6,0,10.1c-3.5,0-6.6,0-10.1,0c0,3.4,0,6.7,0,10c-3.3,0-6.7,0-10,0s-6.7,0-10,0c0-3.3,0-6.7,0-10
			c3.3,0,6.5,0,10,0c0-6.9,0-13.4,0-20c3.3,0,6.5,0,10,0c0-3.5,0-6.7,0-10c6.6,0,13.1,0,20,0C306,402.5,306,399.3,306,396z"/>
		<path class="st0" d="M406,416c3.2,0,6.3,0,9.8,0c0.4,6.5,0.1,13.1,0.2,19.7c0,6.6,0,13.3,0,20.1c-9.9,0-19.8,0-30,0
			c0-3.2,0-6.5,0-9.8c0-3.3,0-6.7,0-10c0-6.7,0-13.3,0-20c3.3,0,6.7,0,10,0c0,3.3,0,6.7,0,10c0,3.3,0,6.6,0,10c2,0,3.6,0,5.2,0
			c1.6,0,3.2-0.1,4.8-0.2c0-3.5,0-6.7,0-9.8c0-0.3,0-0.7,0-1C406,422,406,419,406,416z"/>
		<path class="st0" d="M216,406c0-6.3,0-12.7,0-19c0.3-0.3,0.7-0.7,1-1c3,0,6,0,9,0c0,6.7,0,13.3,0,20C222.7,406,219.3,406,216,406z
			"/>
		<path class="st13" d="M246,470c0-1.3,0-2.7,0-4c3.3,0,6.7,0,10,0c0,6.6,0,13.1,0,20c-1.4,0-2.7,0-4,0c0-5.2,0-10.5,0-16
			C249.9,470,247.9,470,246,470z"/>
		<path class="st14" d="M386,436c0,3.3,0,6.7,0,10c-3.3,0-6.7,0-10,0c0-3.3,0-6.7,0-10C379.3,436,382.7,436,386,436z"/>
		<path class="st15" d="M266,446c3.3,0,6.7,0,10,0c0,3.3,0,6.5,0,10c-3.5,0-6.7,0-10,0C266,452.7,266,449.3,266,446z"/>
		<path class="st13" d="M246,466c-3.3,0-6.5,0-10,0c0-3.5,0-6.7,0-10c3.3,0,6.7,0,10,0C246,459.3,246,462.7,246,466z"/>
		<path class="st16" d="M266,456c0,3.3,0,6.5,0,10c-3.5,0-6.7,0-10,0c0-3.3,0-6.7,0-10C259.3,456,262.7,456,266,456z"/>
		<path class="st17" d="M286,456c3.3,0,6.7,0,10,0c0,3.3,0,6.7,0,10c-3.3,0-6.7,0-10,0C286,462.7,286,459.3,286,456z"/>
		<path class="st17" d="M366,456c3.3,0,6.7,0,10,0c0,3.3,0,6.7,0,10c-3.3,0-6.7,0-10,0C366,462.7,366,459.3,366,456z"/>
		<path class="st0" d="M226,386c0-3.3,0-6.5,0-10c3.5,0,6.7,0,10,0c0,3.3,0,6.7,0,10C232.7,386,229.3,386,226,386z"/>
		<path class="st11" d="M286,466c3.3,0,6.7,0,10,0c0,3.2,0,6.3,0,9.8c-1.6,0.1-3.2,0.1-4.8,0.2c-1.6,0-3.3,0-5.2,0
			C286,472.6,286,469.3,286,466z"/>
		<path class="st11" d="M366,466c3.3,0,6.7,0,10,0c0,3.2,0,6.3,0,9.8c-1.6,0.1-3.2,0.1-4.8,0.2c-1.6,0-3.3,0-5.2,0
			C366,472.6,366,469.3,366,466z"/>
		<path class="st13" d="M246,470c1.9,0,3.9,0,6,0c0,5.5,0,10.8,0,16c-1.7,0-3.3,0-5,0c-0.3-0.3-0.7-0.7-1-1C246,480,246,475,246,470
			z"/>
		<path class="st0" d="M217,386c-0.3,0.3-0.7,0.7-1,1C216.3,386.7,216.7,386.3,217,386z"/>
		<path class="st13" d="M246,485c0.3,0.3,0.7,0.7,1,1C246.7,485.7,246.3,485.3,246,485z"/>
		<path class="st10" d="M376,436c-3.2,0-6.3,0-9.8,0c-0.5-3.2,0-6.5-0.3-9.8c-3.2,0-6.3,0-9.7,0c0-3.4,0-6.6,0-10
			c-6.8,0-13.2,0-20,0c0-3.4,0-6.6,0-10c-3.4,0-6.6,0-9.9,0c0-6.7,0-13.3,0-20.1c6.5,0,13.2,0,19.8,0c3.3,0,6.7,0,10,0
			c0,3.3,0,6.5,0,10.1c-3.5,0-6.8,0-9.9,0c0,3.4,0,6.5,0,9.9c6.7,0,13.2,0,19.9,0c0,3.4,0,6.5,0,9.9c3.4,0,6.7,0,10,0
			C376,422.7,376,429.3,376,436z"/>
		<path class="st11" d="M376,416c-3.3,0-6.5,0-10,0c0-3.4,0-6.5,0-9.9c-6.7,0-13.2,0-19.9,0c0-3.4,0-6.5,0-9.9c3.1,0,6.3,0,9.9,0
			c0-3.6,0-6.9,0-10.1c3.3,0,6.5,0,10,0c0,3.4,0,6.5,0,9.9c6.7,0,13.2,0,20,0c0,3.6,0,6.8,0,10.1c-3.3,0-6.5,0-10,0
			C376,409.5,376,412.7,376,416z"/>
		<path class="st11" d="M396,416c-3.3,0-6.7,0-10,0c0-3.3,0-6.7,0-10c3.3,0,6.5,0,10,0C396,409.5,396,412.7,396,416z"/>
		<path class="st10" d="M256,386c0,3.3,0,6.7,0,10c-3.3,0-6.7,0-10,0c0-3.3,0-6.7,0-10C249.3,386,252.7,386,256,386z"/>
		<path class="st11" d="M236,386c0-3.3,0-6.7,0-10c3.3,0,6.5,0,10,0c0,3.5,0,6.7,0,10C242.7,386,239.3,386,236,386z"/>
		<path class="st11" d="M406,416c0,3,0,6,0,9c-0.3,0.3-0.7,0.7-1,1c-3,0-6,0-9,0c0-3.3,0-6.7,0-10C399.3,416,402.7,416,406,416z"/>
		<path class="st10" d="M266,396c6.7,0,13.3,0,20,0c0,3.3,0,6.7,0,10c-3.3,0-6.5,0-10,0c0,3.5,0,6.7,0,10c-3.3,0-6.7,0-10,0
			c0-3.3,0-6.7,0-10S266,399.3,266,396z"/>
		<path class="st10" d="M286,396c0-3.2,0-6.3,0-9.8c6.5-0.4,13.1-0.1,20-0.2c0,3.5,0,6.8,0,10C299.3,396,292.7,396,286,396z"/>
		<path class="st0" d="M266,396c0,3.3,0,6.7,0,10c-3.3,0-6.7,0-10,0c0-3.3,0-6.7,0-10C259.3,396,262.7,396,266,396z"/>
		<path class="st16" d="M246,456c-3.3,0-6.7,0-10,0c0-6.7,0-13.3,0-20c3.3,0,6.7,0,10,0c0,3.3,0,6.7,0,10S246,452.7,246,456z"/>
		<path class="st11" d="M226,386c3.3,0,6.7,0,10,0c0,3.3,0,6.7,0,10s0,6.7,0,10c-3.3,0-6.7,0-10,0C226,399.3,226,392.7,226,386z"/>
		<path class="st10" d="M236,406c0-3.3,0-6.7,0-10c3.3,0,6.7,0,10,0c0,3.3,0,6.7,0,10s0,6.7,0,10c-3.3,0-6.7,0-10,0
			C236,412.7,236,409.3,236,406z"/>
		<path class="st11" d="M216,406c3.3,0,6.7,0,10,0c0,3.3,0,6.7,0,10c-3.3,0-6.7,0-10,0C216,412.7,216,409.3,216,406z"/>
		<path class="st18" d="M216,416c3.3,0,6.7,0,10,0c0,3.2,0,6.3,0,9.8c-1.6,0.1-3.2,0.1-4.8,0.2c-1.6,0-3.3,0-5.2,0
			C216,422.6,216,419.3,216,416z"/>
		<path class="st11" d="M236,416c3.3,0,6.7,0,10,0c0,3.3,0,6.7,0,10c-3.3,0-6.7,0-10,0C236,422.7,236,419.3,236,416z"/>
		<path class="st14" d="M236,426c3.3,0,6.7,0,10,0c0,3.3,0,6.7,0,10c-3.3,0-6.7,0-10,0C236,432.7,236,429.3,236,426z"/>
		<path class="st14" d="M266,456c-3.3,0-6.7,0-10,0c0-3.3,0-6.7,0-10s0-6.7,0-10c3.3,0,6.7,0,10,0c0,3.3,0,6.7,0,10
			S266,452.7,266,456z"/>
		<path class="st11" d="M266,416c3.3,0,6.7,0,10,0c0,6.6,0,13.1,0,20c-3.5,0-6.7,0-10,0C266,429.3,266,422.7,266,416z"/>
		<path class="st11" d="M286,396c6.7,0,13.3,0,20,0c0,3.3,0,6.5,0,10c-6.9,0-13.4,0-20,0C286,402.7,286,399.3,286,396z"/>
		<path class="st11" d="M276,416c0-3.3,0-6.5,0-10c3.5,0,6.7,0,10,0c0,3.3,0,6.5,0,10C282.5,416,279.3,416,276,416z"/>
		<path class="st11" d="M376,436c0-6.7,0-13.3,0-20c3.3,0,6.7,0,10,0c0,6.7,0,13.3,0,20C382.7,436,379.3,436,376,436z"/>
		<path class="st18" d="M396,426c3,0,6,0,9,0c0.3,0,0.7,0,1,0c0,3.2,0,6.3,0,9.8c-1.6,0.1-3.2,0.1-4.8,0.2c-1.6,0-3.3,0-5.2,0
			C396,432.6,396,429.3,396,426z"/>
		<path class="st11" d="M406,426c-0.3,0-0.7,0-1,0c0.3-0.3,0.7-0.7,1-1C406,425.3,406,425.7,406,426z"/>
		<path class="st11" d="M256,456c0,3.3,0,6.7,0,10c-3.3,0-6.7,0-10,0c0-3.3,0-6.7,0-10C249.3,456,252.7,456,256,456z"/>
		<path class="st0" d="M386,416c-3.3,0-6.7,0-10,0c0-3.3,0-6.5,0-10c3.5,0,6.7,0,10,0C386,409.3,386,412.7,386,416z"/>
		<path class="st11" d="M246,406c0-3.3,0-6.7,0-10c3.3,0,6.7,0,10,0c0,3.3,0,6.7,0,10C252.7,406,249.3,406,246,406z"/>
		<path class="st0" d="M246,396c-3.3,0-6.7,0-10,0c0-3.3,0-6.7,0-10c3.3,0,6.7,0,10,0C246,389.3,246,392.7,246,396z"/>
		<path class="st11" d="M256,406c3.3,0,6.7,0,10,0c0,3.3,0,6.7,0,10c-3.3,0-6.7,0-10,0C256,412.7,256,409.3,256,406z"/>
		<path class="st11" d="M256,436c0,3.3,0,6.7,0,10c-3.3,0-6.7,0-10,0c0-3.3,0-6.7,0-10C249.3,436,252.7,436,256,436z"/>
		<path class="st18" d="M246,446c3.3,0,6.7,0,10,0c0,3.3,0,6.7,0,10c-3.3,0-6.7,0-10,0C246,452.7,246,449.3,246,446z"/>
		<path class="st0" d="M256,436c-3.3,0-6.7,0-10,0c0-3.3,0-6.7,0-10s0-6.7,0-10s0-6.7,0-10c3.3,0,6.7,0,10,0c0,3.3,0,6.7,0,10
			C256,422.7,256,429.3,256,436z"/>
		<path class="st10" d="M256,436c0-6.7,0-13.3,0-20c3.3,0,6.7,0,10,0c0,6.7,0,13.3,0,20C262.7,436,259.3,436,256,436z"/>
	</g>
</g>
<g id="buzzcut">
	<g>
		<path class="st0" d="M216,455c0-16,0-32,0-48c0.3-0.3,0.7-0.7,1-1c2.9,0,5.9,0,9,0c0-6.5,0-12.8,0-19c0.3-0.3,0.7-0.7,1-1
			c2.9,0,5.8,0,9,0c0-3.2,0-6.1,0-9c0.3-0.3,0.7-0.7,1-1c2.9,0,5.8,0,9,0c0-3.2,0-6.1,0-9c0.3-0.3,0.7-0.7,1-1c6.2,0,12.5,0,19,0
			c0-3.1,0-6.1,0-9c0.3-0.3,0.7-0.7,1-1c26,0,52,0,78,0c0.3,0.3,0.7,0.7,1,1c0,2.9,0,5.9,0,9c6.5,0,12.8,0,19,0c0.3,0.3,0.7,0.7,1,1
			c0,2.9,0,5.8,0,9c3.2,0,6.1,0,9,0c0.3,0.3,0.7,0.7,1,1c0,2.9,0,5.8,0,9c3.2,0,6.1,0,9,0c0.3,0.3,0.7,0.7,1,1c0,2.9,0,5.8,0,9
			c3.2,0,6.1,0,9,0c0.3,0.3,0.7,0.7,1,1c0,6.2,0,12.5,0,19c3.1,0,6.1,0,9,0c0.3,0.3,0.7,0.7,1,1c0,12.7,0,25.3,0,38
			c-0.3,0.3-0.7,0.7-1,1c-6,0-12,0-18,0c-0.3-0.3-0.7-0.7-1-1c0-3,0-6,0-9c0-3.3,0-6.7,0-10c0-6.6,0-13.1,0-20c-3.1,0-6.1,0-9,0
			c-0.3-0.3-0.7-0.7-1-1c0-3,0-6,0-9c0-3.3,0-6.5,0-10c-3.2,0-6.1,0-9,0c-0.3-0.3-0.7-0.7-1-1c0-2.9,0-5.8,0-9c-3.5,0-6.7,0-10,0
			c-3,0-6,0-9,0c-0.3-0.3-0.7-0.7-1-1c0-2.9,0-5.8,0-9c-3.5,0-6.7,0-10,0c-16.7,0-33.3,0-50,0c-6.6,0-13.1,0-20,0c0,3.1,0,6.1,0,9
			c-0.3,0.3-0.7,0.7-1,1c-6.3,0-12.5,0-19,0c0,6.5,0,12.7,0,19c-0.3,0.3-0.7,0.7-1,1c-2.9,0-5.9,0-9,0c0,6.9,0,13.4,0,20
			c0,3.3,0,6.7,0,10c0,6.3,0,12.7,0,19c-0.3,0.3-0.7,0.7-1,1c-6,0-12,0-18,0C216.7,455.7,216.3,455.3,216,455z"/>
		<path class="st10" d="M347,386c3,0,6,0,9,0c0,3.3,0,6.5,0,10c3.5,0,6.7,0,10,0c0,3.3,0,6.5,0,10c3.5,0,6.7,0,10,0c0,3,0,6,0,9
			c0,0.3,0,0.7,0,1c0,6.7,0,13.3,0,20c-26.7,0-53.3,0-80,0c0-3.3,0-6.5,0-10c-6.9,0-13.4,0-20,0c0-3.3,0-6.7,0-10
			c0-9.9,0-19.9,0-29.9c3.5-0.3,6.8,0.2,10-0.3c0-3.5,0-6.6,0-9.8c16.7,0,33.3,0,50,0c0,3.3,0,6.5,0,10c3.5,0,6.7,0,10,0
			C346.3,386,346.7,386,347,386z"/>
		<path class="st16" d="M236,455c0-6.3,0-12.7,0-19c3.3,0,6.7,0,10,0c0,3.3,0,6.5,0,10.1c3.5,0,6.7,0,10.1,0c0,3.4,0,6.5,0,9.9
			c3.4,0,6.7,0,9.9,0c0,3.3,0,6.5,0,10c-3.5,0-6.7,0-10,0c-3.3,0-6.7,0-10,0c0-3.3,0-6.5,0-10c-3.5,0-6.7,0-10,0
			C236,455.7,236,455.3,236,455z"/>
		<path class="st10" d="M286,436c0,3.3,0,6.5,0,10c-3.5,0-6.7,0-10,0c-3.3,0-6.7,0-10,0c0-3.3,0-6.7,0-10s0-6.7,0-10
			c3.3,0,6.7,0,10,0c0,3.3,0,6.5,0,10C279.5,436,282.7,436,286,436z"/>
		<path class="st19" d="M286,436c-3.3,0-6.5,0-10,0c0-3.5,0-6.7,0-10c6.6,0,13.1,0,20,0c0,3.5,0,6.7,0,10
			C292.7,436,289.3,436,286,436z"/>
		<path class="st13" d="M246,466c3.3,0,6.7,0,10,0c0,6.6,0,13.1,0,20c-1.4,0-2.7,0-4,0c0-5.2,0-10.5,0-16c-2.1,0-4.1,0-6,0
			C246,468.7,246,467.3,246,466z"/>
		<path class="st13" d="M236,456c3.3,0,6.5,0,10,0c0,3.5,0,6.7,0,10c-3.3,0-6.5,0-10,0C236,462.5,236,459.3,236,456z"/>
		<path class="st15" d="M266,446c3.3,0,6.7,0,10,0c0,3.3,0,6.5,0,10c-3.5,0-6.7,0-10,0C266,452.7,266,449.3,266,446z"/>
		<path class="st14" d="M386,436c0,3.3,0,6.7,0,10c-3.3,0-6.5,0-10,0c0-3.5,0-6.7,0-10C379.3,436,382.7,436,386,436z"/>
		<path class="st13" d="M246,470c1.9,0,3.9,0,6,0c0,5.5,0,10.8,0,16c-1.7,0-3.3,0-5,0c-0.3-0.3-0.7-0.7-1-1C246,480,246,475,246,470
			z"/>
		<path class="st0" d="M217,406c-0.3,0.3-0.7,0.7-1,1C216.3,406.7,216.7,406.3,217,406z"/>
		<path class="st0" d="M396,397c-0.3-0.3-0.7-0.7-1-1C395.3,396.3,395.7,396.7,396,397z"/>
		<path class="st0" d="M406,417c-0.3-0.3-0.7-0.7-1-1C405.3,416.3,405.7,416.7,406,417z"/>
		<path class="st0" d="M386,387c-0.3-0.3-0.7-0.7-1-1C385.3,386.3,385.7,386.7,386,387z"/>
		<path class="st0" d="M227,386c-0.3,0.3-0.7,0.7-1,1C226.3,386.7,226.7,386.3,227,386z"/>
		<path class="st0" d="M376,377c-0.3-0.3-0.7-0.7-1-1C375.3,376.3,375.7,376.7,376,377z"/>
		<path class="st0" d="M237,376c-0.3,0.3-0.7,0.7-1,1C236.3,376.7,236.7,376.3,237,376z"/>
		<path class="st0" d="M366,367c-0.3-0.3-0.7-0.7-1-1C365.3,366.3,365.7,366.7,366,367z"/>
		<path class="st0" d="M216,455c0.3,0.3,0.7,0.7,1,1C216.7,455.7,216.3,455.3,216,455z"/>
		<path class="st0" d="M236,455c0,0.3,0,0.7,0,1c-0.3,0-0.7,0-1,0C235.3,455.7,235.7,455.3,236,455z"/>
		<path class="st0" d="M386,455c0.3,0.3,0.7,0.7,1,1C386.7,455.7,386.3,455.3,386,455z"/>
		<path class="st0" d="M405,456c0.3-0.3,0.7-0.7,1-1C405.7,455.3,405.3,455.7,405,456z"/>
		<path class="st0" d="M247,366c-0.3,0.3-0.7,0.7-1,1C246.3,366.7,246.7,366.3,247,366z"/>
		<path class="st0" d="M346,357c-0.3-0.3-0.7-0.7-1-1C345.3,356.3,345.7,356.7,346,357z"/>
		<path class="st0" d="M267,356c-0.3,0.3-0.7,0.7-1,1C266.3,356.7,266.7,356.3,267,356z"/>
		<path class="st13" d="M246,485c0.3,0.3,0.7,0.7,1,1C246.7,485.7,246.3,485.3,246,485z"/>
		<path class="st11" d="M266,426c0,3.3,0,6.7,0,10c-6.7,0-13.3,0-20,0c0-3.3,0-6.5,0-10c-3.5,0-6.7,0-10,0c0-6.6,0-13.1,0-20
			c3.1,0,6.1,0,9,0c0.3-0.3,0.7-0.7,1-1c0-6.3,0-12.5,0-19c6.5,0,12.7,0,19,0c0.3-0.3,0.7-0.7,1-1c0-2.9,0-5.9,0-9
			c6.9,0,13.4,0,20,0c0,3.2,0,6.3,0,9.8c-3.2,0.5-6.5,0-10,0.3c0,10,0,19.9,0,29.9c-3.3,0-6.7,0-10.1-0.1c-0.1-3.2-0.1-6.5-0.1-9.7
			c-3.4,0-6.6,0-9.8,0c0,3.3,0,6.4,0,9.6c3.4,0,6.6,0,9.8,0.1C266,419.3,266,422.7,266,426z"/>
		<path class="st11" d="M386,436c-3.3,0-6.7,0-10,0c0-6.7,0-13.3,0-20c0.3,0,0.7,0,1,0c2.9,0,5.9,0,9,0C386,422.9,386,429.4,386,436
			z"/>
		<path class="st11" d="M346,386c-3.3,0-6.5,0-10,0c0-3.5,0-6.7,0-10c3.3,0,6.5,0,10,0c0,3.2,0,6.1,0,9C346,385.3,346,385.7,346,386
			z"/>
		<path class="st11" d="M366,396c-3.3,0-6.5,0-10,0c0-3.5,0-6.7,0-10c3.3,0,6.5,0,10,0c0,3.2,0,6.1,0,9C366,395.3,366,395.7,366,396
			z"/>
		<path class="st14" d="M236,426c3.3,0,6.5,0,10,0c0,3.5,0,6.7,0,10c-3.3,0-6.7,0-10,0C236,432.7,236,429.3,236,426z"/>
		<path class="st11" d="M376,406c-3.3,0-6.5,0-10,0c0-3.5,0-6.7,0-10c0.3,0,0.7,0,1,0c2.9,0,5.8,0,9,0C376,399.5,376,402.7,376,406z
			"/>
		<path class="st0" d="M246,405c-0.3,0.3-0.7,0.7-1,1C245.3,405.7,245.7,405.3,246,405z"/>
		<path class="st0" d="M377,416c-0.3,0-0.7,0-1,0c0-0.3,0-0.7,0-1C376.3,415.3,376.7,415.7,377,416z"/>
		<path class="st0" d="M367,396c-0.3,0-0.7,0-1,0c0-0.3,0-0.7,0-1C366.3,395.3,366.7,395.7,367,396z"/>
		<path class="st0" d="M346,386c0-0.3,0-0.7,0-1c0.3,0.3,0.7,0.7,1,1C346.7,386,346.3,386,346,386z"/>
		<path class="st0" d="M266,385c-0.3,0.3-0.7,0.7-1,1C265.3,385.7,265.7,385.3,266,385z"/>
		<path class="st15" d="M266,426c0-3.3,0-6.7,0-10c3.3,0,6.7,0,10,0c0,3.3,0,6.7,0,10C272.7,426,269.3,426,266,426z"/>
		<path class="st14" d="M246,436c6.7,0,13.3,0,20,0c0,3.3,0,6.7,0,10s0,6.7,0,10c-3.3,0-6.5,0-9.9,0c0-3.4,0-6.5,0-9.9
			c-3.3,0-6.6,0-10.1,0C246,442.5,246,439.3,246,436z"/>
		<path class="st14" d="M265.9,415.9c-3.1,0-6.4,0-9.8,0c0-3.2,0-6.3,0-9.6c3.2,0,6.4,0,9.8,0C265.9,409.5,265.9,412.7,265.9,415.9z
			"/>
	</g>
</g>
<g id="default">
	<g>
		<path class="st0" d="M405,436c-2.9,0-5.9,0-9,0c0,6.5,0,12.8,0,19c-0.3,0.3-0.7,0.7-1,1c-2.7,0-5.3,0-8,0c-0.3-0.3-0.7-0.7-1-1
			c0-6.5,0-12.9,0-19.4c0-6.5,0.2-13.1-0.1-19.6c-3.2,0-6,0-8.9,0c-0.3-0.3-0.7-0.7-1-1c0-3,0-6,0-9c0-3.3,0-6.5,0-10
			c-3.2,0-6.1,0-9,0c-0.3-0.3-0.7-0.7-1-1c0-2.9,0-5.8,0-9c-3.2,0-6.1,0-9,0c-0.3-0.3-0.7-0.7-1-1c0-2.9,0-5.8,0-9
			c-3.5,0-6.7,0-10,0c-9.7,0-19.3,0-29,0c-0.3-0.3-0.7-0.7-1-1c0-9.6,0-19.2,0-29c-2,0-3.6,0-5.2,0c-1.6,0-3.2,0.1-4.8,0.2
			c0,9.9,0,19.3,0,28.8c-0.3,0.3-0.7,0.7-1,1c-6.3,0-12.7,0-19,0c-6.6,0-13.1,0-20,0c0,3.1,0,6.1,0,9c-0.3,0.3-0.7,0.7-1,1
			c-6.3,0-12.5,0-19,0c0,6.5,0,12.7,0,19c-0.3,0.3-0.7,0.7-1,1c-2.9,0-5.9,0-9,0c0,16.5,0,32.8,0,49c-0.3,0.3-0.7,0.7-1,1
			c-6,0-12,0-18,0c-0.3-0.3-0.7-0.7-1-1c0-16,0-32,0-48c0.3-0.3,0.7-0.7,1-1c2.9,0,5.9,0,9,0c0-6.5,0-12.8,0-19c0.3-0.3,0.7-0.7,1-1
			c2.9,0,5.8,0,9,0c0-3.2,0-6.1,0-9c0.3-0.3,0.7-0.7,1-1c2.9,0,5.8,0,9,0c0-3.2,0-6.1,0-9c0.3-0.3,0.7-0.7,1-1c6.2,0,12.5,0,19,0
			c0-3.1,0-6.1,0-9c0.3-0.3,0.7-0.7,1-1c6.2,0,12.5,0,19,0c0-3.1,0-6.1,0-9c0.3-0.3,0.7-0.7,1-1c2.9,0,5.8,0,9,0c0-3.2,0-6.1,0-9
			c0.3-0.3,0.7-0.7,1-1c2.9,0,5.8,0,9,0c0-3.2,0-6.1,0-9c0.3-0.3,0.7-0.7,1-1c2.7,0,5.3,0,8,0c0.3,0.3,0.7,0.7,1,1c0,2.9,0,5.8,0,9
			c3.2,0,6.1,0,9,0c0.3,0.3,0.7,0.7,1,1c0,2.9,0,5.8,0,9c3.2,0,6.1,0,9,0c0.3,0.3,0.7,0.7,1,1c0,2.9,0,5.9,0,9c6.5,0,12.8,0,19,0
			c0.3,0.3,0.7,0.7,1,1c0,2.9,0,5.8,0,9c3.2,0,6.1,0,9,0c0.3,0.3,0.7,0.7,1,1c0,2.9,0,5.8,0,9c3.2,0,6.1,0,9,0c0.3,0.3,0.7,0.7,1,1
			c0,2.9,0,5.8,0,9c3.2,0,6.1,0,9,0c0.3,0.3,0.7,0.7,1,1c0,2.9,0,5.8,0,9c3.2,0,6.1,0,9,0c0.3,0.3,0.7,0.7,1,1c0,6.2,0,12.5,0,19
			c3.1,0,6.1,0,9,0c0.3,0.3,0.7,0.7,1,1c0,6,0,12,0,18C405.7,435.3,405.3,435.7,405,436z"/>
		<path class="st20" d="M236,455c0-16.2,0-32.5,0-49c3.1,0,6.1,0,9,0c0.3-0.3,0.7-0.7,1-1c0-6.3,0-12.5,0-19c6.5,0,12.7,0,19,0
			c0.3-0.3,0.7-0.7,1-1c0-2.9,0-5.9,0-9c6.9,0,13.4,0,20,0c0,3.3,0,6.6,0,9.9c-3.5,0.4-6.8-0.2-10,0.4c0,6.8,0,13.3,0,19.8
			c-3.3,0-6.6,0-10,0c0,16.9,0,33.4,0,50c0,3.2,0,6.3,0,9.8c-3.2,0.5-6.5,0-9.8,0.3c0,6.5,0,12.9,0,19.7c-1.7,0.1-3.3,0.1-4.9,0.2
			c-1.6,0-3.3,0-5.1,0c0-6.6,0-13,0-19.8c-3.3-0.5-6.6,0-10.2-0.4c0-3.3,0-6.6,0-9.9C236,455.7,236,455.3,236,455z"/>
		<path class="st21" d="M266,456c0-16.6,0-33.1,0-50c3.4,0,6.7,0,10,0c0,3.3,0,6.5,0,10c3.5,0,6.7,0,10,0c0,3.3,0,6.7,0,10
			s0,6.7,0,10c-3.3,0-6.5,0-10,0c0,3.5,0,6.7,0,10s0,6.5,0,10C272.5,456,269.3,456,266,456z"/>
		<path class="st20" d="M377,416c2.8,0,5.6,0,8.9,0c0.3,6.5,0.1,13.1,0.1,19.6c0,6.5,0,12.9,0,19.4c0,0.3,0,0.7,0,1
			c-3.3,0-6.5,0-9.9,0c0-3.4,0-6.5,0-9.9c-3.3,0-6.6,0-10.1,0c0-3.6,0-6.8,0-10.1c3.3,0,6.5,0,10,0c0-6.9,0-13.4,0-20
			C376.3,416,376.7,416,377,416z"/>
		<path class="st20" d="M356,436c0,3.2,0,6.3,0,9.8c-6.5,0.4-13.1,0.1-20,0.2c0-3.5,0-6.8,0-10C342.7,436,349.3,436,356,436z"/>
		<path class="st20" d="M326,436c0,3.2,0,6.3,0,9.8c-6.5,0.4-13.1,0.1-20,0.2c0-3.5,0-6.8,0-10C312.7,436,319.3,436,326,436z"/>
		<path class="st20" d="M286,436c0-3.3,0-6.7,0-10c6.7,0,13.3,0,20,0c0,3.3,0,6.7,0,10C299.3,436,292.7,436,286,436z"/>
		<path class="st20" d="M276,446c0-3.3,0-6.5,0-10c3.5,0,6.7,0,10,0c0,3.3,0,6.5,0,10C282.5,446,279.3,446,276,446z"/>
		<path class="st20" d="M366,436c-3.3,0-6.7,0-10,0c0-3.3,0-6.7,0-10c3.3,0,6.7,0,10,0C366,429.3,366,432.7,366,436z"/>
		<path class="st20" d="M336,436c-3.3,0-6.7,0-10,0c0-3.3,0-6.7,0-10c3.3,0,6.7,0,10,0C336,429.3,336,432.7,336,436z"/>
		<path class="st0" d="M227,386c-0.3,0.3-0.7,0.7-1,1C226.3,386.7,226.7,386.3,227,386z"/>
		<path class="st0" d="M386,387c-0.3-0.3-0.7-0.7-1-1C385.3,386.3,385.7,386.7,386,387z"/>
		<path class="st0" d="M396,397c-0.3-0.3-0.7-0.7-1-1C395.3,396.3,395.7,396.7,396,397z"/>
		<path class="st0" d="M217,406c-0.3,0.3-0.7,0.7-1,1C216.3,406.7,216.7,406.3,217,406z"/>
		<path class="st0" d="M376,377c-0.3-0.3-0.7-0.7-1-1C375.3,376.3,375.7,376.7,376,377z"/>
		<path class="st0" d="M237,376c-0.3,0.3-0.7,0.7-1,1C236.3,376.7,236.7,376.3,237,376z"/>
		<path class="st0" d="M366,367c-0.3-0.3-0.7-0.7-1-1C365.3,366.3,365.7,366.7,366,367z"/>
		<path class="st0" d="M247,366c-0.3,0.3-0.7,0.7-1,1C246.3,366.7,246.7,366.3,247,366z"/>
		<path class="st0" d="M356,357c-0.3-0.3-0.7-0.7-1-1C355.3,356.3,355.7,356.7,356,357z"/>
		<path class="st0" d="M267,356c-0.3,0.3-0.7,0.7-1,1C266.3,356.7,266.7,356.3,267,356z"/>
		<path class="st0" d="M406,417c-0.3-0.3-0.7-0.7-1-1C405.3,416.3,405.7,416.7,406,417z"/>
		<path class="st0" d="M336,347c-0.3-0.3-0.7-0.7-1-1C335.3,346.3,335.7,346.7,336,347z"/>
		<path class="st0" d="M287,346c-0.3,0.3-0.7,0.7-1,1C286.3,346.7,286.7,346.3,287,346z"/>
		<path class="st0" d="M326,337c-0.3-0.3-0.7-0.7-1-1C325.3,336.3,325.7,336.7,326,337z"/>
		<path class="st0" d="M405,436c0.3-0.3,0.7-0.7,1-1C405.7,435.3,405.3,435.7,405,436z"/>
		<path class="st0" d="M297,336c-0.3,0.3-0.7,0.7-1,1C296.3,336.7,296.7,336.3,297,336z"/>
		<path class="st0" d="M316,327c-0.3-0.3-0.7-0.7-1-1C315.3,326.3,315.7,326.7,316,327z"/>
		<path class="st0" d="M307,326c-0.3,0.3-0.7,0.7-1,1C306.3,326.7,306.7,326.3,307,326z"/>
		<path class="st0" d="M216,455c0.3,0.3,0.7,0.7,1,1C216.7,455.7,216.3,455.3,216,455z"/>
		<path class="st0" d="M236,455c0,0.3,0,0.7,0,1c-0.3,0-0.7,0-1,0C235.3,455.7,235.7,455.3,236,455z"/>
		<path class="st0" d="M386,456c0-0.3,0-0.7,0-1c0.3,0.3,0.7,0.7,1,1C386.7,456,386.3,456,386,456z"/>
		<path class="st0" d="M395,456c0.3-0.3,0.7-0.7,1-1C395.7,455.3,395.3,455.7,395,456z"/>
		<path class="st21" d="M326,426c0,3.3,0,6.7,0,10c-6.7,0-13.3,0-20,0c0-3.3,0-6.7,0-10c0-3.3,0-6.5,0-10c-6.9,0-13.4,0-20,0
			c0-3.3,0-6.5,0-10c-3.5,0-6.7,0-10,0c0-6.5,0-13,0-19.8c3.2-0.5,6.5,0,10-0.4c0-3.3,0-6.6,0-9.9c6.3,0,12.7,0,19,0
			c0.3-0.3,0.7-0.7,1-1c0-9.5,0-19,0-28.8c1.6-0.1,3.2-0.1,4.8-0.2c1.6,0,3.3,0,5.2,0c0,9.8,0,19.4,0,29c0.3,0.3,0.7,0.7,1,1
			c9.7,0,19.3,0,29,0c0,3.3,0,6.5,0,10c3.5,0,6.7,0,10,0c0,3.3,0,6.5,0,10c3.5,0,6.7,0,10,0c0,3.3,0,6.7,0,10s0,6.7,0,10
			c-3.3,0-6.5,0-10,0c0,3.5,0,6.7,0,10c0,3.3,0,6.7,0,10c-6.7,0-13.3,0-20,0c0-3.3,0-6.7,0-10c3.3,0,6.5,0,9.8,0c0-3.5,0-6.7,0-9.9
			c-6.6,0-13.1,0-19.8,0C326,419.5,326,422.7,326,426z"/>
		<path class="st22" d="M366,416c0-3.3,0-6.7,0-10c3.3,0,6.7,0,10,0c0,3,0,6,0,9c0,0.3,0,0.7,0,1C372.7,416,369.3,416,366,416z"/>
		<path class="st20" d="M356,386c-3.3,0-6.5,0-10,0c0-3.5,0-6.7,0-10c3.3,0,6.5,0,10,0c0,3.2,0,6.1,0,9C356,385.3,356,385.7,356,386
			z"/>
		<path class="st20" d="M376,406c-3.3,0-6.7,0-10,0c0-3.3,0-6.7,0-10c0.3,0,0.7,0,1,0c2.9,0,5.8,0,9,0C376,399.5,376,402.7,376,406z
			"/>
		<path class="st20" d="M366,396c-3.3,0-6.5,0-10,0c0-3.5,0-6.7,0-10c0.3,0,0.7,0,1,0c2.9,0,5.8,0,9,0c0,3.2,0,6.1,0,9
			C366,395.3,366,395.7,366,396z"/>
		<path class="st0" d="M357,386c-0.3,0-0.7,0-1,0c0-0.3,0-0.7,0-1C356.3,385.3,356.7,385.7,357,386z"/>
		<path class="st0" d="M366,396c0-0.3,0-0.7,0-1c0.3,0.3,0.7,0.7,1,1C366.7,396,366.3,396,366,396z"/>
		<path class="st0" d="M266,385c-0.3,0.3-0.7,0.7-1,1C265.3,385.7,265.7,385.3,266,385z"/>
		<path class="st0" d="M246,405c-0.3,0.3-0.7,0.7-1,1C245.3,405.7,245.7,405.3,246,405z"/>
		<path class="st0" d="M317,376c-0.3-0.3-0.7-0.7-1-1C316.3,375.3,316.7,375.7,317,376z"/>
		<path class="st0" d="M376,416c0-0.3,0-0.7,0-1c0.3,0.3,0.7,0.7,1,1C376.7,416,376.3,416,376,416z"/>
		<path class="st0" d="M306,375c-0.3,0.3-0.7,0.7-1,1C305.3,375.7,305.7,375.3,306,375z"/>
		<path class="st22" d="M286,416c6.6,0,13.1,0,20,0c0,3.5,0,6.7,0,10c-6.7,0-13.3,0-20,0C286,422.7,286,419.3,286,416z"/>
		<path class="st22" d="M276,406c3.3,0,6.5,0,10,0c0,3.5,0,6.7,0,10c-3.3,0-6.5,0-10,0C276,412.5,276,409.3,276,406z"/>
		<path class="st21" d="M366,416c3.3,0,6.7,0,10,0c0,6.6,0,13.1,0,20c-3.5,0-6.7,0-10,0c0-3.3,0-6.7,0-10S366,419.3,366,416z"/>
		<path class="st22" d="M366,416c0,3.3,0,6.7,0,10c-3.3,0-6.7,0-10,0c0-3.3,0-6.5,0-10C359.5,416,362.7,416,366,416z"/>
		<path class="st22" d="M326,426c0-3.3,0-6.5,0-9.9c6.7,0,13.1,0,19.8,0c0,3.2,0,6.4,0,9.9c-3.2,0-6.5,0-9.8,0
			C332.7,426,329.3,426,326,426z"/>
	</g>
</g>
<g id="dreadlocks">
	<g id="group">
		<path class="st0" d="M206,376c0-6.6,0-13.2,0-20c-3.4,0-6.5,0-9.8,0c0-16.7,0-33.2,0-49.9c9.8,0,19.5,0,29.6,0
			c0.5-3.3,0-6.6,0.4-10.1c3.3,0,6.6,0,9.9,0c0,3.3,0,6.5,0,10c3.5,0,6.7,0,10,0c0,6.6,0,13.1,0,20c3.5,0,6.7,0,10,0
			c0,6.6,0,13.2,0,20c6.8,0,13.4,0,20,0c0,6.6,0,13.1,0,20c3.5,0,6.7,0,10,0c0,3.3,0,6.6,0,10c-6.6,0-12.9,0-19.2,0
			c-0.1,0-0.3,0.1-0.4,0.2c-0.1,0.1-0.2,0.2-0.3,0.4c0,3.2,0,6.3,0,9.5c-3.3,0-6.5,0-10,0c0,3.5,0,6.7,0,10c-3.3,0-6.5,0-10,0
			c0,3.5,0,6.7,0,10c0,3.3,0,6.6,0,10c-3.5,0-6.6,0-10,0c0,13.4,0,26.7,0,40c-6.6,0-13.2,0-20,0c0-16.9,0-33.4,0-50
			c3.3,0,6.6,0,10,0c0-2,0-3.6,0-5.2c0-1.6-0.1-3.2-0.2-4.8c-3.5,0-6.7,0-9.8,0c0-3.3,0-6.7,0-10c6.6,0,13.2,0,20,0c0-2,0-3.6,0-5.2
			c0-1.6-0.1-3.2-0.2-4.8c-6.8,0-13.3,0-19.8,0C212.7,376,209.3,376,206,376z M256,356c-3.3,0-6.5,0-10,0c0,3.5,0,6.7,0,10
			c0,3.3,0,6.6,0,10c2,0,3.6,0,5.2,0c1.6,0,3.2-0.1,4.8-0.2c0-3.5,0-6.7,0-9.8c3.3,0,6.6,0,10,0c0-2,0-3.6,0-5.2
			c0-1.6-0.1-3.2-0.2-4.8C262.3,356,259.2,356,256,356z M226,346c0-3.3,0-6.5,0-10c-3.5,0-6.7,0-10,0c0-6.6,0-13.2,0-19.8
			c-3.5,0-6.7,0-10,0c0,9.8,0,19.4,0,29c0,0.1,0.1,0.3,0.2,0.4c0.1,0.1,0.2,0.2,0.4,0.3c3.1,0,6.3,0,9.4,0c0,6.6,0,13.2,0,19.8
			c6.9,0,13.4,0,19.8,0c0-3.4,0-6.5,0-9.7c-3.4-0.2-6.6,0.1-9.8-0.2C226,352.3,226,349.2,226,346z M236.2,336.1c0,3.6,0,6.7,0,9.9
			c1.8,0,3.5,0,5.1,0c1.6,0,3.2-0.1,4.6-0.2c0-3.5,0-6.6,0-9.7C242.5,336.1,239.4,336.1,236.2,336.1z M235.8,325.9
			c0-3.6,0-6.7,0-9.9c-1.8,0-3.4,0-5.1,0c-1.6,0-3.2,0.1-4.6,0.2c0,3.5,0,6.6,0,9.7C229.5,325.9,232.6,325.9,235.8,325.9z"/>
		<path class="st0" d="M306,297c0,12.9,0,25.8,0,39c3.1,0,6.1,0,9,0c0.3,0.3,0.7,0.7,1,1c0,3,0,6-0.1,9.1c-3.2,0.1-6.5,0.1-9.7,0.1
			c0,3.4,0,6.6,0,9.8c3.3,0,6.4,0,9.6,0c0-3.4,0-6.6,0.1-9.8c6.4-0.1,12.7-0.1,19.1-0.1c0.3,0.3,0.7,0.7,1,1c0,2.9,0,5.9,0,9
			c6.5,0,12.8,0,19,0c0.3,0.3,0.7,0.7,1,1c0,2.9,0,5.8,0,9c3.2,0,6.1,0,9,0c0.3,0.3,0.7,0.7,1,1c0,2.9,0,5.8,0,9c3.2,0,6.1,0,9,0
			c0.3,0.3,0.7,0.7,1,1c0,2.9,0,5.8,0,9c3.2,0,6.1,0,9,0c0.3,0.3,0.7,0.7,1,1c0,2.9,0,5.8,0,9c3.2,0,6.1,0,9,0c0.3,0.3,0.7,0.7,1,1
			c0,6.2,0,12.5,0,19c3.1,0,6.1,0,9,0c0.3,0.3,0.7,0.7,1,1c0,12.7,0,25.3,0,38c-0.3,0.3-0.7,0.7-1,1c-6,0-12,0-18,0
			c-0.3-0.3-0.7-0.7-1-1c0-3,0-6,0-9c0-9.9,0-19.8,0-30c-3.1,0-6.1,0-9,0c-0.3-0.3-0.7-0.7-1-1c0-3,0-6,0-9c0-3.3,0-6.5,0-10
			c-3.2,0-6.1,0-9,0c-0.3-0.3-0.7-0.7-1-1c0-2.9,0-5.8,0-9c-3.2,0-6.1,0-9,0c-0.3-0.3-0.7-0.7-1-1c0-2.9,0-5.9,0-9
			c-6.5,0-12.8,0-19,0c-0.3-0.3-0.7-0.7-1-1c0-2.9,0-5.8,0-9c-3.5,0-6.7,0-10,0c-3.3,0-6.7,0-10,0c-10,0-20,0-30,0c0-3,0-6,0-9
			c0.3-0.3,0.7-0.7,1-1c2.9,0,5.9,0,9,0c0-2,0-3.6,0-5.3c0-1.6-0.1-3.2-0.2-4.7c-3.5,0-6.7,0-9.8,0c-3.3,0-6.7,0-10,0
			c0-3.3,0-6.7,0-10c0-3.3,0-6.5,0-10c-3.5,0-6.7,0-10,0c-3.3,0-6.7,0-10,0c0-6.7,0-13.3,0-20c0-3.3,0-6.7,0-10c3,0,6,0,9,0
			c0.3,0.3,0.7,0.7,1,1c0,6.2,0,12.3,0,18.8c1.6,0.1,3.2,0.1,4.8,0.2c1.6,0,3.3,0,5.2,0c0-9.8,0-19.4,0-29c0.3-0.3,0.7-0.7,1-1
			c6,0,12,0,18,0c0.3,0.3,0.7,0.7,1,1c0,3,0,6,0,9c-3.3,0-6.5,0-10,0c0,3.5,0,6.7,0,10c0,3.3,0,6.7,0,10s0,6.7,0,10
			c0,3.3,0,6.6,0,10c2,0,3.6,0,5.2,0c1.6,0,3.2-0.1,4.8-0.2c0-3.5,0-6.7,0-9.8c0-3.3,0-6.7,0-10s0-6.7,0-10s0-6.7,0-10c3,0,6,0,9,0
			C305.3,296.3,305.7,296.7,306,297z"/>
		<path class="st11" d="M286,366c10,0,20,0,30,0c0,6.6,0,13.1,0,20c3.5,0,6.7,0,10,0c0,6.6,0,13.2,0,19.9c3.5,0.3,6.8-0.2,10,0.3
			c0,3.5,0,6.6,0,9.8c0,3.3,0,6.7,0,10s0,6.7,0,10c-3.3,0-6.7,0-10,0c0-3.3,0-6.7,0-10c0-3.3,0-6.5,0-10c-3.5,0-6.7,0-10,0
			c0-6.6,0-13.1,0-20c-3.5,0-6.7,0-10.1-0.1c-0.1-6.5-0.1-13.1-0.1-19.7c-3.4,0-6.6,0-9.8,0c0,6.6,0,13.1,0,19.6
			c3.4,0,6.6,0,9.8,0.1c0.1,13.3,0.1,26.6,0.1,40.1c6.8,0,13.4,0,20,0c0,3.3,0,6.5,0,9.9c-6.7,0-13.1,0-19.9,0c0,3.3,0,6.6,0,10.1
			c-3.6,0-6.9,0-10.1,0c0-6.6,0-13.2,0-20c-6.8,0-13.4,0-20,0c0-6.7,0-13.3,0-20c3.3,0,6.7,0,10,0c0,3.3,0,6.6,0,10c2,0,3.6,0,5.2,0
			c1.6,0,3.2-0.1,4.8-0.2c0-3.5,0-6.7,0-9.8c0-3.3,0-6.5,0-10.1c-3.5,0-6.8,0-10.1,0c0-6.8,0-13.2,0-19.9c-6.7,0-13.3,0-19.9,0
			c0-3.2,0-6.3,0-9.5c0.1-0.1,0.2-0.3,0.3-0.4c0.1-0.1,0.3-0.2,0.4-0.2c6.3,0,12.6,0,19.2,0C286,372.6,286,369.3,286,366z"/>
		<path class="st11" d="M236,456c0-13.3,0-26.5,0-40c3.4,0,6.5,0,10,0c0-3.4,0-6.7,0-10c3.3,0,6.6,0,10.1,0c0,6.9,0,13.4,0,20.1
			c3.4,0,6.5,0,9.9,0c0,10.1,0,20,0,29.9c0,3.2,0,6.3,0,9.8c-3.2,0.5-6.5,0-10,0.3c0,6,0,11.9,0,17.9c-0.6,0-1.2,0-2,0
			c0,0.8,0,1.4,0,2c-2.3,0-4.7,0-7,0c-0.3-0.3-0.7-0.7-1-1c0-6.2,0-12.3,0-18.8c-3.2-0.5-6.5,0-10-0.4C236,462.6,236,459.3,236,456z
			"/>
		<path class="st11" d="M337,376c6.2,0,12.5,0,19,0c0,3.1,0,6.1,0,9c0.3,0.3,0.7,0.7,1,1c2.9,0,5.8,0,9,0c0,3.2,0,6.1,0,9
			c0,0.3,0,0.7,0,1c-3.3,0-6.6,0-10,0c0,2,0,3.6,0,5.2c0,1.6,0.1,3.2,0.2,4.8c3.5,0,6.7,0,9.8,0c0,3.3,0,6.7,0,10c0,6.7,0,13.3,0,20
			c-3.3,0-6.7,0-10,0c0-6.6,0-13.1,0-20c-3.5,0-6.7,0-10,0c0-6.6,0-13.2,0-20.1c-3.5,0-6.7,0-10,0c0-3.4,0-6.5,0-9.9
			c-3.4,0-6.7,0-10,0c0-6.7,0-13.3,0-20c3.3,0,6.5,0,10,0c0,3.2,0,6.1,0,9C336.3,375.3,336.7,375.7,337,376z"/>
		<path class="st10" d="M266,456c0-9.9,0-19.8,0-29.9c-3.3,0-6.4,0-9.9,0c0-6.7,0-13.2,0-20.1c-3.6,0-6.9,0-10.1,0c0-3.3,0-6.5,0-10
			c3.5,0,6.7,0,10,0c3.3,0,6.7,0,10,0c0,6.6,0,13.1,0,20c3.5,0,6.7,0,10,0c0,6.7,0,13.3,0,20c0,6.6,0,13.1,0,20
			C272.5,456,269.3,456,266,456z"/>
		<path class="st11" d="M377,416c2.9,0,5.9,0,9,0c0,10.2,0,20.1,0,30c-6.6,0-13.1,0-20,0c0-3.5,0-6.7,0-10c3.3,0,6.5,0,10,0
			c0-6.9,0-13.4,0-20C376.3,416,376.7,416,377,416z"/>
		<path class="st0" d="M196,406c0,3.1,0,6.3,0,9.8c-6.5,0.4-13.1,0.1-19.8,0.2c0-10,0-19.8,0-30c3.2,0,6.5,0,9.8,0
			c0,6.6,0,13.1,0,20C189.5,406,192.7,406,196,406z"/>
		<path class="st0" d="M236,296c0-3.2,0-6.3,0-9.8c6.5-0.4,13.1-0.1,20-0.2c0,3.5,0,6.8,0,10C249.3,296,242.7,296,236,296z"/>
		<path class="st11" d="M356,436c0,3.2,0,6.3,0,9.8c-6.5,0.4-13.1,0.1-20,0.2c0-3.5,0-6.8,0-10C342.7,436,349.3,436,356,436z"/>
		<path class="st0" d="M216,406c-6.7,0-13.3,0-20,0c0-3.3,0-6.5,0-10c3.5,0,6.7,0,10,0c3.3,0,6.7,0,10,0
			C216,399.3,216,402.7,216,406z"/>
		<path class="st0" d="M186,386c0-3.3,0-6.5,0-10c6.9,0,13.4,0,20,0c0,3.3,0,6.7,0,10C199.3,386,192.7,386,186,386z"/>
		<path class="st11" d="M295.9,456.1c0,3.1,0,6.4,0,9.8c-3.2,0-6.3,0-9.6,0c0-3.2,0-6.4,0-9.8C289.5,456.1,292.7,456.1,295.9,456.1z
			"/>
		<path class="st11" d="M254,486c0-0.6,0-1.2,0-2c0.8,0,1.4,0,2,0c0,0.6,0,1.2,0,2C255.2,486,254.6,486,254,486z"/>
		<path class="st0" d="M356,357c-0.3-0.3-0.7-0.7-1-1C355.3,356.3,355.7,356.7,356,357z"/>
		<path class="st0" d="M396,397c-0.3-0.3-0.7-0.7-1-1C395.3,396.3,395.7,396.7,396,397z"/>
		<path class="st0" d="M386,387c-0.3-0.3-0.7-0.7-1-1C385.3,386.3,385.7,386.7,386,387z"/>
		<path class="st0" d="M306,297c-0.3-0.3-0.7-0.7-1-1C305.3,296.3,305.7,296.7,306,297z"/>
		<path class="st0" d="M316,337c-0.3-0.3-0.7-0.7-1-1C315.3,336.3,315.7,336.7,316,337z"/>
		<path class="st0" d="M376,377c-0.3-0.3-0.7-0.7-1-1C375.3,376.3,375.7,376.7,376,377z"/>
		<path class="st0" d="M336,347c-0.3-0.3-0.7-0.7-1-1C335.3,346.3,335.7,346.7,336,347z"/>
		<path class="st0" d="M266,297c-0.3-0.3-0.7-0.7-1-1C265.3,296.3,265.7,296.7,266,297z"/>
		<path class="st0" d="M296,287c-0.3-0.3-0.7-0.7-1-1C295.3,286.3,295.7,286.7,296,287z"/>
		<path class="st0" d="M406,417c-0.3-0.3-0.7-0.7-1-1C405.3,416.3,405.7,416.7,406,417z"/>
		<path class="st0" d="M277,286c-0.3,0.3-0.7,0.7-1,1C276.3,286.7,276.7,286.3,277,286z"/>
		<path class="st0" d="M386,455c0.3,0.3,0.7,0.7,1,1C386.7,455.7,386.3,455.3,386,455z"/>
		<path class="st0" d="M405,456c0.3-0.3,0.7-0.7,1-1C405.7,455.3,405.3,455.7,405,456z"/>
		<path class="st0" d="M366,367c-0.3-0.3-0.7-0.7-1-1C365.3,366.3,365.7,366.7,366,367z"/>
		<path class="st11" d="M246,485c0.3,0.3,0.7,0.7,1,1C246.7,485.7,246.3,485.3,246,485z"/>
		<path class="st11" d="M216,346c-3.1,0-6.3,0-9.4,0c-0.1-0.1-0.3-0.2-0.4-0.3c-0.1-0.1-0.2-0.3-0.2-0.4c0-9.6,0-19.2,0-29
			c3.3,0,6.5,0,10,0c0,6.6,0,13.2,0,19.8C216,339.3,216,342.7,216,346z"/>
		<path class="st11" d="M276,336c0,3.3,0,6.7,0,10c-6.6,0-13.2,0-20,0c0-6.8,0-13.4,0-20c3.3,0,6.7,0,10,0c0,3.3,0,6.5,0,10
			C269.5,336,272.7,336,276,336z"/>
		<path class="st11" d="M226,346c0,3.2,0,6.3,0,9.9c3.2,0.3,6.5,0,9.8,0.2c0,3.2,0,6.4,0,9.7c-6.4,0-13,0-19.8,0
			c0-6.5,0-13.1,0-19.8C219.3,346,222.7,346,226,346z"/>
		<path class="st11" d="M236,296c6.7,0,13.3,0,20,0c0,3.3,0,6.7,0,10c-3.3,0-6.7,0-10,0c-3.3,0-6.5,0-10,0
			C236,302.5,236,299.3,236,296z"/>
		<path class="st10" d="M246,306c3.3,0,6.7,0,10,0c0,6.7,0,13.3,0,20c-3.3,0-6.5,0-10,0C246,319.1,246,312.6,246,306z"/>
		<path class="st11" d="M286,357c0,3,0,6,0,9c-3.3,0-6.5,0-10,0c0-6.9,0-13.4,0-20c3.3,0,6.7,0,10,0c0,3.3,0,6.7,0,10
			C286,356.3,286,356.7,286,357z"/>
		<path class="st11" d="M216,376c6.5,0,13,0,19.8,0c0.1,1.6,0.1,3.2,0.2,4.8c0,1.6,0,3.3,0,5.2c-6.8,0-13.4,0-20,0
			C216,382.7,216,379.3,216,376z"/>
		<path class="st11" d="M256,366c0,3.2,0,6.3,0,9.8c-1.6,0.1-3.2,0.1-4.8,0.2c-1.6,0-3.3,0-5.2,0c0-3.4,0-6.7,0-10
			C249.3,366,252.7,366,256,366z"/>
		<path class="st11" d="M256,356c3.2,0,6.3,0,9.8,0c0.1,1.6,0.1,3.2,0.2,4.8c0,1.6,0,3.3,0,5.2c-3.4,0-6.7,0-10,0
			C256,362.7,256,359.3,256,356z"/>
		<path class="st10" d="M256,356c0,3.3,0,6.7,0,10c-3.3,0-6.7,0-10,0c0-3.3,0-6.5,0-10C249.5,356,252.7,356,256,356z"/>
		<path class="st9" d="M216,376c0,3.3,0,6.7,0,10c-3.3,0-6.7,0-10,0c0-3.3,0-6.7,0-10C209.3,376,212.7,376,216,376z"/>
		<path class="st23" d="M206,386c3.3,0,6.7,0,10,0c0,3.3,0,6.7,0,10c-3.3,0-6.7,0-10,0C206,392.7,206,389.3,206,386z"/>
		<path class="st11" d="M266,396c-3.3,0-6.7,0-10,0c0-3.3,0-6.5,0-10c3.5,0,6.7,0,10,0C266,389.3,266,392.7,266,396z"/>
		<path class="st24" d="M236.2,336.1c3.3,0,6.4,0,9.7,0c0,3.2,0,6.3,0,9.7c-1.4,0.1-3,0.1-4.6,0.2c-1.6,0-3.3,0-5.1,0
			C236.2,342.8,236.2,339.6,236.2,336.1z"/>
		<path class="st10" d="M226,346c-3.3,0-6.7,0-10,0c0-3.3,0-6.7,0-10c3.3,0,6.5,0,10,0C226,339.5,226,342.7,226,346z"/>
		<path class="st24" d="M216,406c0-3.3,0-6.7,0-10c3.2,0,6.3,0,9.8,0c0.1,1.6,0.1,3.2,0.2,4.8c0,1.6,0,3.3,0,5.2
			C222.6,406,219.3,406,216,406z"/>
		<path class="st24" d="M235.8,325.9c-3.3,0-6.4,0-9.7,0c0-3.2,0-6.3,0-9.7c1.4-0.1,3-0.1,4.6-0.2c1.6,0,3.3,0,5.1,0
			C235.8,319.3,235.8,322.4,235.8,325.9z"/>
		<path class="st10" d="M326,366c0,6.7,0,13.3,0,20c-3.3,0-6.5,0-10,0c0-6.9,0-13.4,0-20C319.3,366,322.7,366,326,366z"/>
		<path class="st23" d="M286,326c0-3.3,0-6.7,0-10c3.3,0,6.7,0,10,0c0,3.3,0,6.7,0,10C292.7,326,289.3,326,286,326z"/>
		<path class="st10" d="M286,306c0-3.3,0-6.5,0-10c3.5,0,6.7,0,10,0c0,3.3,0,6.7,0,10C292.7,306,289.3,306,286,306z"/>
		<path class="st11" d="M315.9,346.1c0,3.1,0,6.4,0,9.8c-3.2,0-6.3,0-9.6,0c0-3.2,0-6.4,0-9.8C309.5,346.1,312.7,346.1,315.9,346.1z
			"/>
		<path class="st10" d="M286,356c0-3.3,0-6.7,0-10c3.2,0,6.3,0,9.8,0c0.1,1.6,0.1,3.2,0.2,4.7c0,1.6,0,3.3,0,5.3c-3.1,0-6.1,0-9,0
			C286.7,356,286.3,356,286,356z"/>
		<path class="st12" d="M366,416c0-3.3,0-6.7,0-10c3.3,0,6.7,0,10,0c0,3,0,6,0,9c0,0.3,0,0.7,0,1C372.7,416,369.3,416,366,416z"/>
		<path class="st11" d="M286,306c3.3,0,6.7,0,10,0c0,3.3,0,6.7,0,10c-3.3,0-6.7,0-10,0C286,312.7,286,309.3,286,306z"/>
		<path class="st11" d="M376,406c-3.3,0-6.7,0-10,0c0-3.3,0-6.7,0-10c0.3,0,0.7,0,1,0c2.9,0,5.8,0,9,0C376,399.5,376,402.7,376,406z
			"/>
		<path class="st11" d="M286,326c3.3,0,6.7,0,10,0c0,3.2,0,6.3,0,9.8c-1.6,0.1-3.2,0.1-4.8,0.2c-1.6,0-3.3,0-5.2,0
			C286,332.6,286,329.3,286,326z"/>
		<path class="st10" d="M276,336c-3.3,0-6.5,0-10,0c0-3.5,0-6.7,0-10c3.3,0,6.5,0,10,0C276,329.5,276,332.7,276,336z"/>
		<path class="st0" d="M367,396c-0.3,0-0.7,0-1,0c0-0.3,0-0.7,0-1C366.3,395.3,366.7,395.7,367,396z"/>
		<path class="st0" d="M376,416c0-0.3,0-0.7,0-1c0.3,0.3,0.7,0.7,1,1C376.7,416,376.3,416,376,416z"/>
		<path class="st0" d="M357,386c-0.3-0.3-0.7-0.7-1-1C356.3,385.3,356.7,385.7,357,386z"/>
		<path class="st0" d="M337,376c-0.3-0.3-0.7-0.7-1-1C336.3,375.3,336.7,375.7,337,376z"/>
		<path class="st0" d="M286,356c0.3,0,0.7,0,1,0c-0.3,0.3-0.7,0.7-1,1C286,356.7,286,356.3,286,356z"/>
		<path class="st10" d="M326,436c-6.6,0-13.2,0-20,0c0-13.5,0-26.8,0-40c3.3,0,6.5,0,10,0c0,6.9,0,13.4,0,20c0,3.3,0,6.5,0,10
			c3.5,0,6.7,0,10,0C326,429.3,326,432.7,326,436z"/>
		<path class="st10" d="M266,396c0-3.3,0-6.7,0-10c6.6,0,13.2,0,19.9,0c0,6.7,0,13.1,0,19.9c3.3,0,6.6,0,10.1,0c0,3.6,0,6.9,0,10.1
			c-3.3,0-6.7,0-10,0s-6.7,0-10,0c0-6.6,0-13.1,0-20C272.5,396,269.3,396,266,396z"/>
		<path class="st10" d="M326,386c3.3,0,6.5,0,10,0c0,3.4,0,6.5,0,9.9c3.4,0,6.6,0,10,0c0,6.9,0,13.5,0,20.1c-3.3,0-6.7,0-10,0
			c0-3.2,0-6.3,0-9.8c-3.2-0.5-6.5,0-10-0.3C326,399.2,326,392.6,326,386z"/>
		<path class="st10" d="M356,436c-6.7,0-13.3,0-20,0c0-3.3,0-6.7,0-10c3.3,0,6.5,0,10,0c0-3.5,0-6.7,0-10c3.3,0,6.5,0,10,0
			C356,422.9,356,429.4,356,436z"/>
		<path class="st10" d="M305.9,395.8c-3.1,0-6.4,0-9.8,0c0-6.6,0-13,0-19.6c3.2,0,6.4,0,9.8,0C305.9,382.8,305.9,389.4,305.9,395.8z
			"/>
		<path class="st12" d="M346,416c0,3.3,0,6.5,0,10c-3.5,0-6.7,0-10,0c0-3.3,0-6.7,0-10C339.3,416,342.7,416,346,416z"/>
		<path class="st12" d="M326,426c-3.3,0-6.5,0-10,0c0-3.5,0-6.7,0-10c3.3,0,6.5,0,10,0C326,419.5,326,422.7,326,426z"/>
		<path class="st12" d="M286,416c3.3,0,6.7,0,10,0c0,3.2,0,6.3,0,9.8c-1.6,0.1-3.2,0.1-4.8,0.2c-1.6,0-3.3,0-5.2,0
			C286,422.6,286,419.3,286,416z"/>
		<path class="st10" d="M366,416c3.3,0,6.7,0,10,0c0,6.6,0,13.1,0,20c-3.5,0-6.7,0-10,0C366,429.3,366,422.7,366,416z"/>
		<path class="st10" d="M366,396c0,3.3,0,6.7,0,10c-3.2,0-6.3,0-9.8,0c-0.1-1.6-0.1-3.2-0.2-4.8c0-1.6,0-3.3,0-5.2
			C359.4,396,362.7,396,366,396z"/>
		<path class="st11" d="M266,396c3.3,0,6.5,0,10,0c0,6.9,0,13.4,0,20c-3.3,0-6.5,0-10,0C266,409.1,266,402.6,266,396z"/>
		<path class="st11" d="M206,386c0,3.3,0,6.7,0,10c-3.3,0-6.5,0-10,0c0,3.5,0,6.7,0,10c-3.3,0-6.5,0-10,0c0-6.9,0-13.4,0-20
			C192.7,386,199.3,386,206,386z"/>
	</g>
</g>
<g id="long">
	<g>
		<path class="st0" d="M236,536c0,3.2,0,6.3,0,9.9c-3.2,0.1-6.4,0-10,0.1c0,3.1,0,6,0,9c-0.3,0.3-0.7,0.7-1,1c-6,0-12,0-18,0
			c-0.3-0.3-0.7-0.7-1-1c0-19.3,0-38.7,0-58c0.3-0.3,0.7-0.7,1-1c2.9,0,5.8,0,9,0c0-3.2,0-6.1,0-9c0.3-0.3,0.7-0.7,1-1
			c2.8,0,5.7,0,8.5,0c0.1-0.1,0.3-0.2,0.4-0.3c0.1-0.1,0.2-0.3,0.2-0.4c0-9.6,0-19.3,0-29.2c-3.1,0-6,0-9,0c-0.3-0.3-0.7-0.7-1-1
			c0-12.7,0-25.3,0-38c0.3-0.3,0.7-0.7,1-1c2.9,0,5.9,0,9,0c0-6.5,0-12.8,0-19c0.3-0.3,0.7-0.7,1-1c2.9,0,5.9,0,9,0
			c0-6.5,0-12.8,0-19c0.3-0.3,0.7-0.7,1-1c2.8,0,5.7,0,8.8,0c0.5-3.2,0-6.5,0.3-9.9c6.5,0,13,0,19.8,0c0-3.4,0-6.6,0-10
			c6.8,0,13.2,0,20,0c0-3.4,0-6.6,0-10c16.8,0,33.2,0,50,0c0,3.2,0,6.4,0,9.8c6.8,0,13.2,0,19.9,0c0,3.3,0,6.4,0,9.9
			c1.7,0.1,3.3,0.1,4.9,0.2c1.6,0,3.3,0,5.1,0c0,3.3,0,6.4,0,9.9c3.4,0,6.6,0,10,0c0,3.5,0,6.6,0,10c3.4,0,6.6,0,10,0
			c0,3.5,0,6.6,0,10c3.4,0,6.6,0,10,0c0,6.8,0,13.2,0,20c3.1,0,6.1,0,9,0c0.3,0.3,0.7,0.7,1,1c0,36,0,72,0,108c-0.3,0.3-0.7,0.7-1,1
			c-2.9,0-5.9,0-8.9,0c0,6.7,0,13.2,0,19.9c-3.3,0-6.6,0-10.1,0c0,6.6,0,12.8,0,19.1c-0.3,0.3-0.7,0.7-1,1c-2.7,0-5.3,0-8,0
			c-0.3-0.3-0.7-0.7-1-1c0-6.3,0-12.7,0-19c0-3,0-6,0-9c0.3-0.3,0.7-0.7,1-1c2.9,0,5.9,0,9,0c0-6.9,0-13.4,0-20c0-3.3,0-6.7,0-10
			c0-29.7,0-59.5,0-89.2c0-0.1-0.1-0.3-0.2-0.4c-0.1-0.1-0.2-0.2-0.5-0.5c-2.9,0-6,0-9.3,0c0-6.5,0-12.8,0-19.1
			c0-0.1-0.1-0.3-0.2-0.4c-0.1-0.1-0.2-0.2-0.4-0.3c-3.2,0-6.3,0-9.5,0c0-3.3,0-6.5,0-10c-3.5,0-6.7,0-10,0c0-3.3,0-6.5,0-10
			c-3.5,0-6.7,0-10,0c-3.3,0-6.7,0-10,0c0-3.3,0-6.5,0-10c-3.5,0-6.7,0-10,0c-3.3,0-6.7,0-10,0c-6.7,0-13.3,0-20,0
			c-3.3,0-6.6,0-9.9,0c-0.4,3.5,0.2,6.8-0.3,10c-3.5,0-6.6,0-9.8,0c-3.3,0-6.5,0-10.1,0c0,3.5,0,6.7,0,10.1c-3.4,0-6.5,0-9.9,0
			c0,3.1,0,6,0,8.9c-0.3,0.3-0.7,0.7-1,1c-2.9,0-5.9,0-9,0c0,6.5,0,12.8,0,19c-0.3,0.3-0.7,0.7-1,1c-2.9,0-5.9,0-9,0
			c0,26.9,0,53.4,0,80c-3.3,0-6.6,0-9.8,0c-0.6,14.2-0.4,35.9,0.3,40C229.7,536,232.8,536,236,536z"/>
		<path class="st11" d="M256,395c0-2.9,0-5.9,0-8.9c3.4,0,6.5,0,9.9,0c0-3.3,0-6.6,0-10.1c3.6,0,6.8,0,10.1,0c0,6.6,0,13.2,0,20
			c3.5,0,6.6,0,10,0c0,6.7,0,13.3,0,20.1c3.5,0,6.6,0,10.1,0c0,3.4,0,6.7,0,10.1c6.8,0,13.3,0,20.1,0c0,3.4,0,6.7,0,9.9
			c3.5,0,6.7,0,9.8,0c0,3.2,0,6.3,0,9.5c-0.1,0.1-0.2,0.3-0.3,0.4c-0.1,0.1-0.3,0.2-0.4,0.2c-6.3,0-12.6,0-19.2,0c0,3.4,0,6.7,0,10
			c-3.3,0-6.7,0-10.1-0.1c-0.1-6.5-0.1-13.1-0.1-19.7c-3.4,0-6.6,0-9.8,0c0,6.6,0,13.1,0,19.6c3.4,0,6.6,0,9.8,0.1
			c0.1,3.4,0.1,6.7,0.1,10.1c-3.3,0-6.5,0-10,0c0,3.5,0,6.7,0,10c0,10,0,20,0,30c-3.3,0-6.6,0-10.2,0c0-6.9,0-13.5,0-19.8
			c-3.4,0-6.6,0-9.6,0c0,10.1,0,19.9,0,30c3.4,0,6.5,0,9.9,0c0,3.4,0,6.6,0,10c3.5,0,6.6,0,9.7,0c0.4,3.4-0.2,6.7,0.3,9.8
			c3.5,0,6.6,0,9.8,0c0,9.8,0,19.6,0,29.8c-1.6,0.1-3.1,0.1-4.7,0.2c-1.6,0-3.3,0-5.3,0c0-3.4,0-6.7,0-10c0-3.3,0-6.5,0-10
			c-3.5,0-6.7,0-10,0c0-3.3,0-6.5,0-9.9c-3.4,0-6.5,0-9.9,0c0-3.3,0-6.6,0-10.1c-3.6,0-6.8,0-10.1,0c0-3.3,0-6.6,0-9.9
			c-3.5-0.4-6.8,0.2-10-0.3c0-3.5,0-6.6,0-9.8c3.3,0,6.6,0,10,0c0-23.3,0-46.3,0-69.2c0-0.1,0.1-0.3,0.2-0.4
			c0.1-0.1,0.2-0.2,0.2-0.2c3.3,0,6.4,0,9.7,0c0,6.6,0,13.1,0,19.6c3.4,0,6.6,0,9.8,0c0-10,0-19.8,0-29.9c-3.4,0-6.6,0-10,0
			c0-6.8,0-13.2,0-19.7c-3.4,0-6.7,0-10,0c0,6.7,0,13.1,0,19.6c-3.4,0.4-6.7-0.2-9.8,0.4c0,23.5,0,46.6,0,69.8c-3.3,0-6.7,0-10,0
			c0-26.6,0-53.1,0-80c3.1,0,6.1,0,9,0c0.3-0.3,0.7-0.7,1-1c0-6.2,0-12.5,0-19c3.1,0,6.1,0,9,0C255.3,395.7,255.7,395.3,256,395z"/>
		<path class="st11" d="M296,366c6.7,0,13.3,0,20,0c0,3.3,0,6.5,0,10c3.5,0,6.7,0,10,0c0,3.3,0,6.5,0,10c6.9,0,13.4,0,20,0
			c0,3.3,0,6.6,0,9.9c-3.5,0.4-6.8-0.2-9.8,0.3c0,3.5,0,6.6,0,9.8c6.5,0,12.8,0,19.1,0c0.1,0,0.3,0.1,0.4,0.2
			c0.1,0.1,0.2,0.2,0.2,0.2c0,3.3,0,6.4,0,9.7c-3.3,0-6.4,0-9.8,0c0,6.8,0,13.4,0,20c-6.7,0-13.3,0-20,0c0-6.6,0-13.2,0-20.1
			c-6.9,0-13.4,0-19.8,0c0-3.4,0-6.6,0-10c3.4,0,6.6,0,9.7,0c0-3.5,0-6.6,0-10c-6.7,0-13.3,0-19.7,0c0-3.4,0-6.6,0-9.8
			c1.8,0,3.4,0,5.1,0c1.6,0,3.2-0.1,4.6-0.1c0-3.5,0-6.6,0-9.8c-3.4-0.1-6.6,0.1-9.8-0.1C296,372.3,296,369.2,296,366z"/>
		<path class="st11" d="M366,396c3.2,0,6.3,0,9.5,0c0.1,0.1,0.3,0.2,0.4,0.3c0.1,0.1,0.2,0.3,0.2,0.4c0,6.3,0,12.6,0,19.1
			c3.2,0,6.4,0,9.3,0c0.3,0.3,0.5,0.4,0.5,0.5c0.1,0.1,0.2,0.3,0.2,0.4c0,29.7,0,59.5,0,89.2c-3.3,0-6.7,0-10,0
			c0-23.3,0-46.5,0-69.9c-3.4,0-6.5,0-9.8,0c0,3.1,0,6.2,0,9.7c-6.7,0.4-13.3,0-20.2,0.2c0-3.5,0-6.8,0-10.1c3.3,0,6.5,0,10.1,0
			c0-3.5,0-6.8,0-10.1c3.4,0,6.5,0,9.9,0C366,415.8,366,405.9,366,396z"/>
		<path class="st10" d="M296,536c-3.2,0-6.3,0-9.8,0c-0.5-3.2,0-6.5-0.3-9.8c-3.2,0-6.3,0-9.7,0c0-3.4,0-6.6,0-10
			c-3.4,0-6.6,0-9.9,0c0-10,0-19.9,0-30c3,0,6.1,0,9.6,0c0,6.4,0,12.9,0,19.8c3.6,0,6.9,0,10.2,0c0,3.2,0,6.3,0,9.8
			c3.2,0.5,6.5,0,10,0.3C296,522.8,296,529.4,296,536z"/>
		<path class="st0" d="M236,496c3.3,0,6.7,0,10,0c0,3.3,0,6.7,0,10c0,3.2,0,6.3,0,9.8c3.2,0.5,6.5,0,10,0.3c0,3.3,0,6.6,0,9.9
			c-3.2,0-6.3,0-9.8,0c-0.5,3.2,0,6.5-0.3,10c-3.3,0-6.6,0-9.9,0C236,522.7,236,509.3,236,496z"/>
		<path class="st11" d="M376,546c0,6.3,0,12.7,0,19c0,0.3,0,0.7,0,1c-3.3,0-6.5,0-10,0c0-6.9,0-13.4,0-20
			C369.3,546,372.7,546,376,546z"/>
		<path class="st10" d="M376,546c-3.3,0-6.7,0-10,0c0-6.7,0-13.3,0-20c3.3,0,6.7,0,10,0c0,3.3,0,6.7,0,10c0,0.3,0,0.7,0,1
			C376,540,376,543,376,546z"/>
		<path class="st0" d="M376,526c-3.3,0-6.7,0-10,0c0-6.6,0-13.1,0-20c3.5,0,6.7,0,10,0c0,3.3,0,6.7,0,10S376,522.7,376,526z"/>
		<path class="st10" d="M276,546c3.3,0,6.5,0,10,0c0,3.5,0,6.7,0,10c-3.3,0-6.5,0-10,0C276,552.5,276,549.3,276,546z"/>
		<path class="st10" d="M296,466c0-3.3,0-6.7,0-10c3.3,0,6.7,0,10,0c0,3.3,0,6.5,0,10C302.5,466,299.3,466,296,466z"/>
		<path class="st10" d="M286,476c0-3.3,0-6.5,0-10c3.5,0,6.7,0,10,0c0,3.3,0,6.5,0,10C292.5,476,289.3,476,286,476z"/>
		<path class="st0" d="M207,496c-0.3,0.3-0.7,0.7-1,1C206.3,496.7,206.7,496.3,207,496z"/>
		<path class="st0" d="M217,486c-0.3,0.3-0.7,0.7-1,1C216.3,486.7,216.7,486.3,217,486z"/>
		<path class="st0" d="M216,455c0.3,0.3,0.7,0.7,1,1C216.7,455.7,216.3,455.3,216,455z"/>
		<path class="st0" d="M406,417c-0.3-0.3-0.7-0.7-1-1C405.3,416.3,405.7,416.7,406,417z"/>
		<path class="st0" d="M217,416c-0.3,0.3-0.7,0.7-1,1C216.3,416.7,216.7,416.3,217,416z"/>
		<path class="st0" d="M405,526c0.3-0.3,0.7-0.7,1-1C405.7,525.3,405.3,525.7,405,526z"/>
		<path class="st0" d="M227,396c-0.3,0.3-0.7,0.7-1,1C226.3,396.7,226.7,396.3,227,396z"/>
		<path class="st0" d="M237,376c-0.3,0.3-0.7,0.7-1,1C236.3,376.7,236.7,376.3,237,376z"/>
		<path class="st0" d="M206,555c0.3,0.3,0.7,0.7,1,1C206.7,555.7,206.3,555.3,206,555z"/>
		<path class="st0" d="M225,556c0.3-0.3,0.7-0.7,1-1C225.7,555.3,225.3,555.7,225,556z"/>
		<path class="st0" d="M376,566c0-0.3,0-0.7,0-1c0.3,0.3,0.7,0.7,1,1C376.7,566,376.3,566,376,566z"/>
		<path class="st0" d="M385,566c0.3-0.3,0.7-0.7,1-1C385.7,565.3,385.3,565.7,385,566z"/>
		<path class="st10" d="M296,366c0,3.2,0,6.3,0,9.9c3.2,0.1,6.4,0,9.8,0.1c0,3.3,0,6.4,0,9.8c-1.4,0-3,0.1-4.6,0.1
			c-1.6,0-3.3,0-5.1,0c0,3.3,0,6.4,0,9.8c6.4,0,13,0,19.7,0c0,3.4,0,6.5,0,10c-3.1,0-6.3,0-9.7,0c0,3.4,0,6.6,0,10
			c6.4,0,13,0,19.8,0c0,6.9,0,13.5,0,20.1c-3.2,0-6.3,0-9.8,0c0-3.2,0-6.5,0-9.9c-6.8,0-13.2,0-20.1,0c0-3.4,0-6.6,0-10.1
			c-3.5,0-6.6,0-10.1,0c0-6.7,0-13.3,0-20.1c-3.5,0-6.6,0-10,0c0-6.8,0-13.4,0-20c3.2,0,6.3,0,9.8,0c0.5-3.2,0-6.5,0.3-10
			C289.4,366,292.7,366,296,366z"/>
		<path class="st11" d="M236,496c0,13.3,0,26.7,0,40c-3.2,0-6.3,0-9.5,0c-0.7-4.1-0.9-25.8-0.3-40C229.4,496,232.7,496,236,496z"/>
		<path class="st10" d="M346,386c-6.6,0-13.1,0-20,0c0-3.5,0-6.7,0-10c3.3,0,6.7,0,10,0s6.7,0,10,0C346,379.3,346,382.7,346,386z"/>
		<path class="st11" d="M376,526c0-3.3,0-6.7,0-10c3.3,0,6.7,0,10,0c0,6.6,0,13.1,0,20c-3.1,0-6.1,0-9,0c-0.3,0-0.7,0-1,0
			C376,532.7,376,529.3,376,526z"/>
		<path class="st10" d="M326,376c-3.3,0-6.5,0-10,0c0-3.5,0-6.7,0-10c3.3,0,6.7,0,10,0C326,369.3,326,372.7,326,376z"/>
		<path class="st11" d="M326,376c0-3.3,0-6.7,0-10c3.3,0,6.5,0,10,0c0,3.5,0,6.7,0,10C332.7,376,329.3,376,326,376z"/>
		<path class="st11" d="M346,386c0-3.3,0-6.7,0-10c3.3,0,6.5,0,10,0c0,3.5,0,6.7,0,10C352.7,386,349.3,386,346,386z"/>
		<path class="st11" d="M356,386c3.3,0,6.5,0,10,0c0,3.5,0,6.7,0,10c-3.3,0-6.5,0-10,0C356,392.5,356,389.3,356,386z"/>
		<path class="st10" d="M386,516c-3.3,0-6.7,0-10,0c0-3.3,0-6.7,0-10c3.3,0,6.7,0,10,0C386,509.3,386,512.7,386,516z"/>
		<path class="st0" d="M246,415c-0.3,0.3-0.7,0.7-1,1C245.3,415.7,245.7,415.3,246,415z"/>
		<path class="st0" d="M376,536c0.3,0,0.7,0,1,0c-0.3,0.3-0.7,0.7-1,1C376,536.7,376,536.3,376,536z"/>
		<path class="st0" d="M256,395c-0.3,0.3-0.7,0.7-1,1C255.3,395.7,255.7,395.3,256,395z"/>
		<path class="st10" d="M246,506c0-3.3,0-6.7,0-10c0-23.1,0-46.3,0-69.8c3.2-0.6,6.5,0,9.8-0.4c0-6.5,0-12.9,0-19.6
			c3.4,0,6.6,0,10,0c0,6.4,0,12.9,0,19.7c3.4,0,6.6,0,10,0c0,10.1,0,19.9,0,29.9c-3.2,0-6.4,0-9.8,0c0-6.5,0-13,0-19.6
			c-3.3,0-6.4,0-9.7,0c0.1-0.1-0.1,0-0.2,0.2c-0.1,0.1-0.2,0.3-0.2,0.4c0,23,0,45.9,0,69.2C252.6,506,249.3,506,246,506z"/>
		<path class="st10" d="M356,386c0,3.3,0,6.5,0,10c3.5,0,6.7,0,10,0c0,9.9,0,19.8,0,29.9c-3.3,0-6.4,0-9.9,0c0,3.4,0,6.6,0,10.1
			c-3.6,0-6.9,0-10.1,0c0-6.6,0-13.2,0-20c3.4,0,6.5,0,9.8,0c0-3.3,0-6.4,0-9.7c0.1,0.1,0-0.1-0.2-0.2c-0.1-0.1-0.3-0.2-0.4-0.2
			c-6.3,0-12.6,0-19.1,0c0-3.2,0-6.4,0-9.8c3-0.5,6.3,0,9.8-0.3c0-3.3,0-6.6,0-9.9C349.3,386,352.7,386,356,386z"/>
	</g>
</g>
<g id="ponytail">
	<g>
		<path class="st0" d="M216,455c0-12.7,0-25.3,0-38c0.3-0.3,0.7-0.7,1-1c2.8,0,5.7,0,8.8,0c0.1-1.6,0.1-3.2,0.2-4.8
			c0-1.6,0-3.3,0-5.1c-6.6,0-13,0-19.8,0c-0.1-1.7-0.1-3.3-0.2-4.9c0-1.6,0-3.3,0-5.1c-3.3,0-6.4,0-9.8,0c0-10,0-19.9,0-30
			c9.7,0,19.5,0,29.5,0c0.6-3.3,0-6.6,0.4-10c3.1,0,6.2,0,9.2,0c0.3-0.3,0.4-0.4,0.5-0.5c0.1-0.1,0.2-0.3,0.2-0.4
			c0-6.3,0-12.6,0-19.2c3.4,0,6.7,0,10,0c0,3.3,0,6.7,0,10c0,6.7,0,13.3,0,20c-3.3,0-6.5,0-10,0c0,3.5,0,6.7,0,10c-3.3,0-6.7,0-10,0
			s-6.7,0-10,0c-3.3,0-6.6,0-10,0c0,2,0,3.6,0,5.2c0,1.6,0.1,3.2,0.2,4.8c3.5,0,6.7,0,9.8,0c0,3.3,0,6.6,0,10c2,0,3.6,0,5.2,0
			c1.6,0,3.2-0.1,4.8-0.2c0-3.2,0-6,0-8.8c0.3-0.3,0.7-0.7,1-1c2.9,0,5.8,0,9,0c0-3.5,0-6.7,0-10c3.3,0,6.5,0,10,0c0-3.5,0-6.7,0-10
			c3.3,0,6.5,0,10,0c0-6.5,0-12.8,0-19c0.3-0.3,0.7-0.7,1-1c6.2,0,12.5,0,19,0c0-3.1,0-6.1,0-9c0.3-0.3,0.7-0.7,1-1
			c9.6,0,19.1,0,29,0c0-3.5,0-6.7,0-10c3,0,6,0,9,0c0.3,0.3,0.7,0.7,1,1c0,6.3,0,12.5,0,19c6.5,0,12.7,0,19,0c0.3,0.3,0.7,0.7,1,1
			c0,2.9,0,5.9,0,9c6.5,0,12.8,0,19,0c0.3,0.3,0.7,0.7,1,1c0,2.9,0,5.8,0,9c3.2,0,6.1,0,9,0c0.3,0.3,0.7,0.7,1,1c0,2.9,0,5.8,0,9
			c3.2,0,6.1,0,9,0c0.3,0.3,0.7,0.7,1,1c0,2.9,0,5.8,0,9c3.2,0,6.1,0,9,0c0.3,0.3,0.7,0.7,1,1c0,2.9,0,5.8,0,9c3.2,0,6.1,0,9,0
			c0.3,0.3,0.7,0.7,1,1c0,6.2,0,12.5,0,19c3.1,0,6.1,0,9,0c0.3,0.3,0.7,0.7,1,1c0,12.7,0,25.3,0,38c-0.3,0.3-0.7,0.7-1,1
			c-6,0-12,0-18,0c-0.3-0.3-0.7-0.7-1-1c0-3,0-6,0-9c0-9.9,0-19.8,0-30c-3.1,0-6.1,0-9,0c-0.3-0.3-0.7-0.7-1-1c0-6.2,0-12.5,0-19
			c-3.1,0-6.1,0-9,0c-0.3-0.3-0.7-0.7-1-1c0-2.9,0-5.8,0-9c-3.2,0-6.1,0-9,0c-0.3-0.3-0.7-0.7-1-1c0-2.9,0-5.8,0-9
			c-3.5,0-6.7,0-10,0c-3,0-6,0-9,0c-0.3-0.3-0.7-0.7-1-1c0-2.9,0-5.8,0-9c-3.5,0-6.7,0-10,0c-3.3,0-6.7,0-10,0c-6.7,0-13.3,0-20,0
			c-3.3,0-6.5,0-10,0c0,3.2,0,6.1,0,9c-0.3,0.3-0.7,0.7-1,1c-3,0-6,0-9,0c-3.3,0-6.5,0-10,0c0,3.2,0,6.1,0,9c-0.3,0.3-0.7,0.7-1,1
			c-2.9,0-5.8,0-9,0c0,3.2,0,6.1,0,9c-0.3,0.3-0.7,0.7-1,1c-2.9,0-5.8,0-9,0c0,3.5,0,6.7,0,10c0,3.3,0,6.6,0,10c-3.5,0-6.6,0-10,0
			c0,13.1,0,26,0,39c-0.3,0.3-0.7,0.7-1,1c-6,0-12,0-18,0C216.7,455.7,216.3,455.3,216,455z M296,356c3.3,0,6.6,0,10,0
			c0-2,0-3.6,0-5.2c0-1.6-0.1-3.2-0.2-4.8c-3.5,0-6.7,0-9.8,0c-3.3,0-6.6,0-10,0c0,2,0,3.6,0,5.2c0,1.6,0.1,3.2,0.2,4.8
			C289.7,356,292.8,356,296,356z"/>
		<path class="st11" d="M367,396c2.9,0,5.9,0,9,0c0,6.5,0,12.8,0,19c0.3,0.3,0.7,0.7,1,1c2.9,0,5.9,0,9,0c0,10.2,0,20.1,0,30
			c-3.2,0-6.3,0-9.8,0c-0.5-3.2,0-6.4-0.3-9.8c-3.1,0-6.2,0-9.7,0c-0.5,3,0,6.3-0.3,9.7c-23.2,0-46.4,0-69.9,0c0-3.3,0-6.6,0-9.8
			c3.3,0,6.5,0,10,0c0-6.9,0-13.4,0-20c3.3,0,6.6,0,10.1,0c0,6.9,0,13.4,0,19.9c10.1,0,19.8,0,29.9,0c0-6.7,0-13.3,0-19.9
			c3.3,0,6.5,0,10.1,0c0,3.5,0,6.8,0,9.9c3.4,0,6.5,0,9.6,0c0-6.7,0-13.2,0-19.9c-3.3,0-6.4,0-9.8,0c0-6.7,0-13.3,0-19.9
			c0.3,0,0.7,0,1,0c2.9,0,5.8,0,9,0c0,3.2,0,6.1,0,9C366.3,395.3,366.7,395.7,367,396z"/>
		<path class="st11" d="M236,455c0-12.9,0-25.9,0-39c3.4,0,6.5,0,10,0c0-3.4,0-6.7,0-10c3.3,0,6.7,0,10,0c0,6.6,0,13.1,0,20
			c3.5,0,6.7,0,10,0c0,10,0,20,0,30c0,3.2,0,6.3,0,9.8c-3.2,0.5-6.5,0-10,0.3c0,6,0,11.9,0,17.9c-0.6,0-1.2,0-2,0c0,0.8,0,1.4,0,2
			c-2.3,0-4.7,0-7,0c-0.3-0.3-0.7-0.7-1-1c0-6.2,0-12.3,0-18.8c-3.2-0.5-6.5,0-10-0.4c0-3.3,0-6.6,0-9.9
			C236,455.7,236,455.3,236,455z"/>
		<path class="st11" d="M256,395c0-2.9,0-5.8,0-9c3.2,0,6.1,0,9,0c0.3-0.3,0.7-0.7,1-1c0-2.9,0-5.8,0-9c3.5,0,6.7,0,10,0
			c0,9.9,0,19.9,0,30.2c3.5,0,6.8,0,10.2,0c0,6.8,0,13.2,0,19.7c3.4,0.3,6.7-0.2,9.8,0.3c0,3.5,0,6.6,0,9.8c-6.7,0-13.3,0-20,0
			c0-3.3,0-6.5,0-10c-3.5,0-6.7,0-10,0c0-6.6,0-13.1,0-20c-3.5,0-6.7,0-10,0c0-3.3,0-6.7,0-10C256,395.7,256,395.3,256,395z"/>
		<path class="st0" d="M266,326c0-3.2,0-6.3,0-9.5c4.1-0.7,25.8-0.9,40-0.3c0,3.3,0,6.5,0,9.8c-10,0-20,0-30,0
			C272.7,326,269.3,326,266,326z"/>
		<path class="st10" d="M266,426c3.3,0,6.5,0,10,0c0,3.5,0,6.7,0,10c0,6.6,0,13.1,0,20c-3.5,0-6.7,0-10,0C266,446,266,436,266,426z"
			/>
		<path class="st0" d="M246,336c0-3.3,0-6.5,0-10c6.9,0,13.4,0,20,0c0,3.3,0,6.7,0,10c-3.3,0-6.7,0-10,0
			C252.7,336,249.3,336,246,336z"/>
		<path class="st11" d="M254,486c0-0.6,0-1.2,0-2c0.8,0,1.4,0,2,0c0,0.6,0,1.2,0,2C255.2,486,254.6,486,254,486z"/>
		<path class="st0" d="M376,377c-0.3-0.3-0.7-0.7-1-1C375.3,376.3,375.7,376.7,376,377z"/>
		<path class="st0" d="M386,387c-0.3-0.3-0.7-0.7-1-1C385.3,386.3,385.7,386.7,386,387z"/>
		<path class="st0" d="M396,397c-0.3-0.3-0.7-0.7-1-1C395.3,396.3,395.7,396.7,396,397z"/>
		<path class="st0" d="M366,367c-0.3-0.3-0.7-0.7-1-1C365.3,366.3,365.7,366.7,366,367z"/>
		<path class="st0" d="M356,357c-0.3-0.3-0.7-0.7-1-1C355.3,356.3,355.7,356.7,356,357z"/>
		<path class="st0" d="M336,347c-0.3-0.3-0.7-0.7-1-1C335.3,346.3,335.7,346.7,336,347z"/>
		<path class="st0" d="M217,416c-0.3,0.3-0.7,0.7-1,1C216.3,416.7,216.7,416.3,217,416z"/>
		<path class="st0" d="M406,417c-0.3-0.3-0.7-0.7-1-1C405.3,416.3,405.7,416.7,406,417z"/>
		<path class="st0" d="M216,455c0.3,0.3,0.7,0.7,1,1C216.7,455.7,216.3,455.3,216,455z"/>
		<path class="st0" d="M236,455c0,0.3,0,0.7,0,1c-0.3,0-0.7,0-1,0C235.3,455.7,235.7,455.3,236,455z"/>
		<path class="st0" d="M386,455c0.3,0.3,0.7,0.7,1,1C386.7,455.7,386.3,455.3,386,455z"/>
		<path class="st0" d="M405,456c0.3-0.3,0.7-0.7,1-1C405.7,455.3,405.3,455.7,405,456z"/>
		<path class="st0" d="M316,327c-0.3-0.3-0.7-0.7-1-1C315.3,326.3,315.7,326.7,316,327z"/>
		<path class="st11" d="M246,485c0.3,0.3,0.7,0.7,1,1C246.7,485.7,246.3,485.3,246,485z"/>
		<path class="st10" d="M296,436c0-3.2,0-6.3,0-9.8c-3.2-0.5-6.5,0-9.8-0.3c0-6.5,0-12.9,0-19.7c-3.4,0-6.6,0-10.2,0
			c0-10.3,0-20.2,0-30.2c3,0,6,0,9,0c0.3-0.3,0.7-0.7,1-1c0-2.9,0-5.8,0-9c3.5,0,6.7,0,10,0c0,3.3,0,6.6,0,9.9
			c3.5,0.4,6.8-0.2,10.2,0.4c0,3.4,0,6.5,0,9.8c1.8,0,3.5,0,5.1,0c1.6,0,3.2,0.1,4.9,0.2c0,3.5,0,6.6,0,9.7c3.3,0,6.4,0,9.8,0
			c0-6.7,0-13.3,0-19.9c3.3,0,6.7,0,10,0c0.3,0,0.7,0,1,0c3,0,6,0,9,0c0,3.3,0,6.5,0,10c3.5,0,6.7,0,10,0c0,6.6,0,13.2,0,19.9
			c3.4,0,6.5,0,9.8,0c0,6.7,0,13.2,0,19.9c-3.1,0-6.2,0-9.6,0c0-3.1,0-6.3,0-9.9c-3.6,0-6.9,0-10.2-0.1c-0.1-3.2-0.1-6.5-0.1-9.7
			c-3.4,0-6.6,0-9.8,0c0,3.3,0,6.4,0,9.6c3.4,0,6.6,0,9.8,0.1c0.1,6.7,0.1,13.3,0.1,20c-10,0-19.8,0-29.9,0c0-6.5,0-13,0-19.9
			c-3.6,0-6.9,0-10.2-0.1c-0.1-3.2-0.1-6.5-0.1-9.7c-3.4,0-6.6,0-9.8,0c0,3.3,0,6.4,0,9.6c3.4,0,6.6,0,9.8,0.1
			c0.1,6.6,0.1,13.2,0.1,20.1C302.5,436,299.3,436,296,436z"/>
		<path class="st11" d="M326,376c0,6.6,0,13.2,0,19.9c-3.4,0-6.5,0-9.8,0c0-3.1,0-6.3,0-9.7c-1.7-0.1-3.3-0.1-4.9-0.2
			c-1.6,0-3.3,0-5.1,0c0-3.3,0-6.4,0-9.8c-3.4-0.5-6.6,0-10.2-0.4c0-3.3,0-6.6,0-9.9c6.7,0,13.3,0,20,0c0,3.3,0,6.5,0,10
			C319.5,376,322.7,376,326,376z"/>
		<path class="st11" d="M276,326c10,0,20,0,30,0c0,3.3,0,6.5,0,10c-9.9,0-19.4,0-29,0c-0.3,0-0.7,0-1,0C276,332.7,276,329.3,276,326
			z"/>
		<path class="st11" d="M256,336c3.3,0,6.7,0,10,0s6.7,0,10,0c0,0.3,0,0.7,0,1c0,2.9,0,5.9,0,9c-6.5,0-12.8,0-19,0c-0.3,0-0.7,0-1,0
			C256,342.7,256,339.3,256,336z"/>
		<path class="st11" d="M246,366c0-6.7,0-13.3,0-20c3.3,0,6.7,0,10,0c0,0.3,0,0.7,0,1c0,6.2,0,12.5,0,19
			C252.5,366,249.3,366,246,366z"/>
		<path class="st10" d="M256,346c-3.3,0-6.7,0-10,0c0-3.3,0-6.7,0-10c3.3,0,6.7,0,10,0C256,339.3,256,342.7,256,346z"/>
		<path class="st18" d="M296,356c-3.2,0-6.3,0-9.8,0c-0.1-1.6-0.1-3.2-0.2-4.8c0-1.6,0-3.3,0-5.2c3.4,0,6.7,0,10,0
			C296,349.3,296,352.7,296,356z"/>
		<path class="st17" d="M296,356c0-3.3,0-6.7,0-10c3.2,0,6.3,0,9.8,0c0.1,1.6,0.1,3.2,0.2,4.8c0,1.6,0,3.3,0,5.2
			C302.6,356,299.3,356,296,356z"/>
		<path class="st11" d="M246,366c0,3.3,0,6.5,0,10c-3.5,0-6.7,0-10,0c0-3.3,0-6.5,0-10C239.5,366,242.7,366,246,366z"/>
		<path class="st10" d="M326,376c-3.3,0-6.5,0-10,0c0-3.5,0-6.7,0-10c3.3,0,6.7,0,10,0C326,369.3,326,372.7,326,376z"/>
		<path class="st11" d="M326,376c0-3.3,0-6.7,0-10c3.3,0,6.5,0,10,0c0,3.2,0,6.1,0,9c0,0.3,0,0.7,0,1C332.7,376,329.3,376,326,376z"
			/>
		<path class="st10" d="M256,396c0,3.3,0,6.7,0,10c-3.3,0-6.7,0-10,0c0-3.3,0-6.5,0-10c3.2,0,6.1,0,9,0C255.3,396,255.7,396,256,396
			z"/>
		<path class="st11" d="M216,386c-3.2,0-6.3,0-9.8,0c-0.1-1.6-0.1-3.2-0.2-4.8c0-1.6,0-3.3,0-5.2c3.4,0,6.7,0,10,0
			C216,379.3,216,382.7,216,386z"/>
		<path class="st10" d="M216,386c0-3.3,0-6.7,0-10c3.3,0,6.7,0,10,0c0,3.3,0,6.7,0,10C222.7,386,219.3,386,216,386z"/>
		<path class="st11" d="M226,386c0-3.3,0-6.7,0-10c3.3,0,6.7,0,10,0c0,3.3,0,6.5,0,10c-3.2,0-6.1,0-9,0C226.7,386,226.3,386,226,386
			z"/>
		<path class="st11" d="M356,386c-3.3,0-6.5,0-10,0c0-3.5,0-6.7,0-10c3.3,0,6.5,0,10,0c0,3.2,0,6.1,0,9C356,385.3,356,385.7,356,386
			z"/>
		<path class="st11" d="M216,386c3.3,0,6.7,0,10,0c0,0.3,0,0.7,0,1c0,2.8,0,5.6,0,8.8c-1.6,0.1-3.2,0.1-4.8,0.2c-1.6,0-3.3,0-5.2,0
			C216,392.6,216,389.3,216,386z"/>
		<path class="st0" d="M266,385c-0.3,0.3-0.7,0.7-1,1C265.3,385.7,265.7,385.3,266,385z"/>
		<path class="st0" d="M356,386c0-0.3,0-0.7,0-1c0.3,0.3,0.7,0.7,1,1C356.7,386,356.3,386,356,386z"/>
		<path class="st0" d="M226,387c0-0.3,0-0.7,0-1c0.3,0,0.7,0,1,0C226.7,386.3,226.3,386.7,226,387z"/>
		<path class="st0" d="M336,376c0-0.3,0-0.7,0-1c0.3,0.3,0.7,0.7,1,1C336.7,376,336.3,376,336,376z"/>
		<path class="st0" d="M256,396c-0.3,0-0.7,0-1,0c0.3-0.3,0.7-0.7,1-1C256,395.3,256,395.7,256,396z"/>
		<path class="st0" d="M367,396c-0.3-0.3-0.7-0.7-1-1C366.3,395.3,366.7,395.7,367,396z"/>
		<path class="st0" d="M286,375c-0.3,0.3-0.7,0.7-1,1C285.3,375.7,285.7,375.3,286,375z"/>
		<path class="st0" d="M256,347c0-0.3,0-0.7,0-1c0.3,0,0.7,0,1,0C256.7,346.3,256.3,346.7,256,347z"/>
		<path class="st0" d="M377,416c-0.3-0.3-0.7-0.7-1-1C376.3,415.3,376.7,415.7,377,416z"/>
		<path class="st0" d="M276,337c0-0.3,0-0.7,0-1c0.3,0,0.7,0,1,0C276.7,336.3,276.3,336.7,276,337z"/>
		<path class="st10" d="M256,406c3.3,0,6.5,0,10,0c0,6.9,0,13.4,0,20c-3.3,0-6.5,0-10,0C256,419.1,256,412.6,256,406z"/>
		<path class="st10" d="M276,336c-3.3,0-6.7,0-10,0c0-3.3,0-6.7,0-10c3.3,0,6.7,0,10,0C276,329.3,276,332.7,276,336z"/>
		<path class="st11" d="M345.9,415.9c-3.1,0-6.4,0-9.8,0c0-3.2,0-6.3,0-9.6c3.2,0,6.4,0,9.8,0C345.9,409.5,345.9,412.7,345.9,415.9z
			"/>
		<path class="st11" d="M305.9,415.9c-3.1,0-6.4,0-9.8,0c0-3.2,0-6.3,0-9.6c3.2,0,6.4,0,9.8,0C305.9,409.5,305.9,412.7,305.9,415.9z
			"/>
	</g>
</g>
<g id="short">
	<g>
		<path class="st0" d="M216,455c0-16,0-32,0-48c0.3-0.3,0.7-0.7,1-1c2.9,0,5.9,0,9,0c0-6.5,0-12.8,0-19c0.3-0.3,0.7-0.7,1-1
			c2.9,0,5.8,0,9,0c0-3.2,0-6.1,0-9c0.3-0.3,0.7-0.7,1-1c2.9,0,5.8,0,9,0c0-3.2,0-6.1,0-9c0.3-0.3,0.7-0.7,1-1c6.2,0,12.5,0,19,0
			c0-3.1,0-6.1,0-9c0.3-0.3,0.7-0.7,1-1c29.3,0,58.7,0,88,0c0.3,0.3,0.7,0.7,1,1c0,2.9,0,5.8,0,9c3.2,0,6.1,0,9,0
			c0.3,0.3,0.7,0.7,1,1c0,2.9,0,5.8,0,9c3.2,0,6.1,0,9,0c0.3,0.3,0.7,0.7,1,1c0,2.9,0,5.8,0,9c3.2,0,6.1,0,9,0c0.3,0.3,0.7,0.7,1,1
			c0,2.9,0,5.8,0,9c3.2,0,6.1,0,9,0c0.3,0.3,0.7,0.7,1,1c0,6.2,0,12.5,0,19c3.1,0,6.1,0,9,0c0.3,0.3,0.7,0.7,1,1c0,12.7,0,25.3,0,38
			c-0.3,0.3-0.7,0.7-1,1c-6,0-12,0-18,0c-0.3-0.3-0.7-0.7-1-1c0-6.5,0-12.9,0-19.4c0-6.5,0.2-13.1-0.1-19.6c-3.2,0-6,0-8.9,0
			c-0.3-0.3-0.7-0.7-1-1c0-3,0-6,0-9c0-3.3,0-6.5,0-10c-3.2,0-6.1,0-9,0c-0.3-0.3-0.7-0.7-1-1c0-2.9,0-5.8,0-9c-3.2,0-6.1,0-9,0
			c-0.3-0.3-0.7-0.7-1-1c0-2.9,0-5.8,0-9c-3.5,0-6.7,0-10,0c-20,0-40,0-60,0c-6.6,0-13.1,0-20,0c0,3.1,0,6.1,0,9
			c-0.3,0.3-0.7,0.7-1,1c-6.3,0-12.5,0-19,0c0,6.5,0,12.7,0,19c-0.3,0.3-0.7,0.7-1,1c-2.9,0-5.9,0-9,0c0,16.5,0,32.8,0,49
			c-0.3,0.3-0.7,0.7-1,1c-6,0-12,0-18,0C216.7,455.7,216.3,455.3,216,455z"/>
		<path class="st11" d="M266,385c0-2.9,0-5.9,0-9c6.9,0,13.4,0,20,0c0,3.3,0,6.6,0,9.9c-3.5,0.4-6.8-0.2-10,0.4c0,6.8,0,13.3,0,19.8
			c-3.3,0-6.6,0-10,0c0,16.9,0,33.4,0,50c0,3.2,0,6.3,0,9.8c-3.2,0.5-6.5,0-10,0.3c0,6,0,11.9,0,17.9c-0.6,0-1.2,0-2,0
			c0,0.8,0,1.4,0,2c-2.3,0-4.7,0-7,0c-0.3-0.3-0.7-0.7-1-1c0-6.2,0-12.3,0-18.8c-3.2-0.5-6.5,0-10-0.4c0-3.3,0-6.6,0-9.9
			c0-0.3,0-0.7,0-1c0-16.2,0-32.5,0-49c3.1,0,6.1,0,9,0c0.3-0.3,0.7-0.7,1-1c0-6.3,0-12.5,0-19c6.5,0,12.7,0,19,0
			C265.3,385.7,265.7,385.3,266,385z"/>
		<path class="st11" d="M377,416c2.8,0,5.6,0,8.9,0c0.3,6.5,0.1,13.1,0.1,19.6c0,6.5,0,12.9,0,19.4c0,0.3,0,0.7,0,1
			c-3.2,0-6.3,0-9.8,0c-0.1-1.6-0.1-3.2-0.2-4.8c0-1.6,0-3.3,0-5.1c-3.3,0-6.4,0-9.9,0c0-3.4,0-6.6,0-10.1c-26.9,0-53.5,0-80.1,0
			c0-3.3,0-6.7,0-10c3.3,0,6.5,0,10,0c0-3.5,0-6.7,0-10c6.7,0,13.3,0,20,0c3.3,0,6.7,0,10,0c10,0,20,0,30,0c3.3,0,6.5,0,10.1,0
			c0,3.5,0,6.7,0,9.9c3.4,0,6.5,0,9.9,0c0-3.4,0-6.6,0-9.9C376.3,416,376.7,416,377,416z"/>
		<path class="st10" d="M286,426c0,3.3,0,6.7,0,10c-3.2,0-6.3,0-9.5,0c-0.1,0.1-0.3,0.2-0.4,0.3c-0.1,0.1-0.2,0.3-0.2,0.4
			c0,6.3,0,12.6,0,19.2c-3.4,0-6.7,0-10,0c0-16.6,0-33.1,0-50c3.4,0,6.7,0,10,0c0,6.6,0,13.1,0,20C279.5,426,282.7,426,286,426z"/>
		<path class="st11" d="M254,486c0-0.6,0-1.2,0-2c0.8,0,1.4,0,2,0c0,0.6,0,1.2,0,2C255.2,486,254.6,486,254,486z"/>
		<path class="st0" d="M227,386c-0.3,0.3-0.7,0.7-1,1C226.3,386.7,226.7,386.3,227,386z"/>
		<path class="st0" d="M386,387c-0.3-0.3-0.7-0.7-1-1C385.3,386.3,385.7,386.7,386,387z"/>
		<path class="st0" d="M396,397c-0.3-0.3-0.7-0.7-1-1C395.3,396.3,395.7,396.7,396,397z"/>
		<path class="st0" d="M217,406c-0.3,0.3-0.7,0.7-1,1C216.3,406.7,216.7,406.3,217,406z"/>
		<path class="st0" d="M376,377c-0.3-0.3-0.7-0.7-1-1C375.3,376.3,375.7,376.7,376,377z"/>
		<path class="st0" d="M237,376c-0.3,0.3-0.7,0.7-1,1C236.3,376.7,236.7,376.3,237,376z"/>
		<path class="st0" d="M366,367c-0.3-0.3-0.7-0.7-1-1C365.3,366.3,365.7,366.7,366,367z"/>
		<path class="st0" d="M247,366c-0.3,0.3-0.7,0.7-1,1C246.3,366.7,246.7,366.3,247,366z"/>
		<path class="st0" d="M356,357c-0.3-0.3-0.7-0.7-1-1C355.3,356.3,355.7,356.7,356,357z"/>
		<path class="st0" d="M406,417c-0.3-0.3-0.7-0.7-1-1C405.3,416.3,405.7,416.7,406,417z"/>
		<path class="st0" d="M216,455c0.3,0.3,0.7,0.7,1,1C216.7,455.7,216.3,455.3,216,455z"/>
		<path class="st0" d="M236,455c0,0.3,0,0.7,0,1c-0.3,0-0.7,0-1,0C235.3,455.7,235.7,455.3,236,455z"/>
		<path class="st0" d="M386,456c0-0.3,0-0.7,0-1c0.3,0.3,0.7,0.7,1,1C386.7,456,386.3,456,386,456z"/>
		<path class="st0" d="M405,456c0.3-0.3,0.7-0.7,1-1C405.7,455.3,405.3,455.7,405,456z"/>
		<path class="st0" d="M267,356c-0.3,0.3-0.7,0.7-1,1C266.3,356.7,266.7,356.3,267,356z"/>
		<path class="st11" d="M246,485c0.3,0.3,0.7,0.7,1,1C246.7,485.7,246.3,485.3,246,485z"/>
		<path class="st10" d="M326,416c-3.3,0-6.7,0-10,0c0-3.3,0-6.6,0-10c-6.9,0.2-13.5-0.2-20,0.2c0,3.5,0,6.7,0,9.8c0,3.3,0,6.5,0,10
			c-3.5,0-6.7,0-10,0c0-6.6,0-13.1,0-20c-3.5,0-6.7,0-10,0c0-6.5,0-13,0-19.8c3.2-0.5,6.5,0,10-0.4c0-3.3,0-6.6,0-9.9
			c20,0,40,0,60,0c0,3.3,0,6.5,0,10c3.5,0,6.7,0,10,0c0,3.3,0,6.5,0,10c3.5,0,6.7,0,10,0c0,3.3,0,6.5,0,10c3.5,0,6.7,0,10,0
			c0,3,0,6,0,9c0,0.3,0,0.7,0,1c0,3.3,0,6.5,0,9.9c-3.4,0-6.5,0-9.9,0c0-3.2,0-6.4,0-9.9c-3.6,0-6.8,0-10.1,0c0-3.3,0-6.6,0-10
			c-10,0-19.6,0-29.2,0c-0.1,0-0.3,0.1-0.4,0.2c-0.1,0.1-0.2,0.2-0.3,0.4C326,409.7,326,412.8,326,416z"/>
		<path class="st11" d="M356,386c-3.3,0-6.5,0-10,0c0-3.5,0-6.7,0-10c3.3,0,6.5,0,10,0c0,3.2,0,6.1,0,9C356,385.3,356,385.7,356,386
			z"/>
		<path class="st11" d="M376,406c-3.3,0-6.5,0-10,0c0-3.5,0-6.7,0-10c0.3,0,0.7,0,1,0c2.9,0,5.8,0,9,0C376,399.5,376,402.7,376,406z
			"/>
		<path class="st11" d="M366,396c-3.3,0-6.5,0-10,0c0-3.5,0-6.7,0-10c0.3,0,0.7,0,1,0c2.9,0,5.8,0,9,0c0,3.2,0,6.1,0,9
			C366,395.3,366,395.7,366,396z"/>
		<path class="st0" d="M357,386c-0.3,0-0.7,0-1,0c0-0.3,0-0.7,0-1C356.3,385.3,356.7,385.7,357,386z"/>
		<path class="st0" d="M366,396c0-0.3,0-0.7,0-1c0.3,0.3,0.7,0.7,1,1C366.7,396,366.3,396,366,396z"/>
		<path class="st0" d="M266,385c-0.3,0.3-0.7,0.7-1,1C265.3,385.7,265.7,385.3,266,385z"/>
		<path class="st0" d="M246,405c-0.3,0.3-0.7,0.7-1,1C245.3,405.7,245.7,405.3,246,405z"/>
		<path class="st0" d="M376,416c0-0.3,0-0.7,0-1c0.3,0.3,0.7,0.7,1,1C376.7,416,376.3,416,376,416z"/>
		<path class="st12" d="M326,416c0-3.2,0-6.3,0-9.5c0.1-0.1,0.2-0.3,0.3-0.4c0.1-0.1,0.3-0.2,0.4-0.2c9.6,0,19.3,0,29.2,0
			c0,3.4,0,6.7,0,10C346,416,336,416,326,416z"/>
		<path class="st12" d="M296,416c0-3.2,0-6.3,0-9.8c6.5-0.4,13.1-0.1,20-0.2c0,3.5,0,6.8,0,10C309.3,416,302.7,416,296,416z"/>
		<path class="st11" d="M276,406c3.3,0,6.5,0,10,0c0,6.9,0,13.4,0,20c-3.3,0-6.5,0-10,0C276,419.1,276,412.6,276,406z"/>
	</g>
</g>
</svg>
